# 3ds Max Wavefront OBJ Exporter v0.97b - (c)2007 guruware
# File Created: 03.12.2014 13:10:01

mtllib a.mtl

#
# object Box01
#

#
# object Box02
#

#
# object Box03
#

#
# object Box04
#

#
# object Group976
#

v  -20.4416 25.8966 16.1309
v  -14.4601 27.8549 20.0336
v  -14.9554 28.9122 14.2087
v  28.0524 -3.8394 -0.3072
v  23.6057 -5.0719 -5.7780
v  28.7163 -1.4216 -5.2691
v  12.6247 33.0020 1.2960
v  13.2896 34.4686 -5.1827
v  7.2186 33.5935 -0.3314
v  8.1335 -5.8367 -9.7293
v  6.0752 0.4091 -14.4762
v  11.1369 -1.4212 -13.8514
v  -22.4019 12.8237 -5.6858
v  -24.1715 11.0423 -3.3620
v  -24.4754 16.5248 0.6971
v  -8.9270 2.0702 16.2160
v  -7.0547 1.9997 12.0909
v  -4.2611 1.9484 15.2233
v  32.4290 9.0817 3.8973
v  32.2180 7.0520 -0.0745
v  33.2540 16.8614 2.8753
v  -7.1374 10.1099 23.6788
v  -1.1319 10.2451 25.6464
v  -4.2130 14.8727 22.4193
v  -22.1269 26.7834 -1.5358
v  -29.3680 23.3458 0.5494
v  -24.4849 30.3945 0.6532
v  3.2474 32.8509 -17.2918
v  5.0391 28.4338 -18.3358
v  0.7867 29.2692 -17.5595
v  -12.0606 -1.2249 11.2305
v  -10.6736 -2.0094 -11.8819
v  -3.6538 0.0748 -13.4774
v  -2.3976 -5.3278 -9.7235
v  12.0159 13.2344 20.7958
v  13.6034 14.2297 18.3648
v  9.1660 18.7021 19.9635
v  -3.7587 37.8578 9.9314
v  -0.6036 33.9719 12.9389
v  2.7281 36.9266 5.7346
v  12.7185 23.9334 -20.0933
v  12.2765 19.1949 -14.8768
v  7.4789 20.2758 -20.3213
v  30.5306 20.5081 -0.1325
v  26.8483 18.0249 -7.1476
v  29.1025 24.4650 -3.2711
v  -24.8370 21.7028 18.8001
v  -20.7144 19.5379 18.8810
v  -21.2543 22.6997 20.4812
v  -24.1313 6.8699 6.9363
v  -22.1758 2.4379 2.6824
v  -23.4400 3.6895 8.0154
v  -11.7094 6.6628 -14.9195
v  -17.4782 4.9359 -13.6615
v  -17.5436 14.7834 -15.5306
v  3.3024 20.2173 -20.3883
v  -1.9943 23.8257 -19.4078
v  2.2091 24.3646 -18.9118
v  19.4309 -1.2641 17.9688
v  13.4865 0.8482 18.2734
v  15.2762 -4.4020 17.3934
v  19.8718 6.5290 20.9115
v  16.8812 3.3731 22.8805
v  21.7334 1.1832 18.5838
v  14.0187 -6.8861 6.2647
v  10.5437 -9.5021 9.8696
v  11.5040 -7.8721 1.9330
v  -0.4073 -9.1051 -4.2177
v  -0.0988 -11.7174 1.1414
v  -9.2810 -9.2543 -1.2243
v  12.6607 29.2792 19.4840
v  8.3883 24.8823 21.0075
v  16.7398 25.9488 16.7444
v  25.4775 18.8879 10.3798
v  25.5624 23.2089 5.8519
v  24.7824 22.6916 14.1863
v  -15.2282 0.1444 -10.7467
v  -25.2527 8.8514 5.6659
v  -25.8823 5.7953 0.7216
v  -3.1432 41.2014 0.2570
v  4.5629 37.2214 0.8957
v  5.9281 34.5024 -2.0916
v  -24.4578 32.2725 2.7578
v  -18.5602 33.0015 4.9518
v  -14.8118 38.4797 3.3400
v  13.8889 8.9785 -11.0978
v  16.8997 6.2297 -12.2631
v  7.5945 6.9799 -15.8179
v  23.6211 14.1098 -10.5387
v  17.5524 17.7534 -12.4028
v  21.9410 18.8192 -13.1713
v  -21.9036 18.9800 -1.7832
v  -25.2374 18.7515 1.3425
v  -24.9502 22.9806 -2.5785
v  -2.0657 28.0885 -18.0566
v  -6.6635 27.8586 -11.8640
v  -3.7378 31.3550 -12.9991
v  -21.5642 2.6743 15.7920
v  -18.3504 0.4860 13.4543
v  -17.4434 2.0603 17.7756
v  -23.1900 16.5725 21.8874
v  -27.6367 23.5301 -0.5829
v  -27.0265 11.3963 21.7123
v  -29.0981 15.2418 18.4818
v  -28.5061 9.5147 17.5524
v  5.9829 28.7009 22.2530
v  -3.2417 20.9685 19.5134
v  -7.6742 24.1858 20.6932
v  -10.1698 17.4449 16.9928
v  26.6342 20.8451 -9.7879
v  24.0659 17.3998 -9.7463
v  23.7101 21.1071 -12.6889
v  11.5788 32.9511 -12.1172
v  16.0291 33.0521 -12.1790
v  12.9021 29.6158 -17.0259
v  25.6385 12.2965 17.2735
v  28.0222 13.2551 13.0548
v  29.0604 17.5918 12.8574
v  30.5789 21.2863 2.8808
v  15.3418 30.8962 16.4740
v  7.2455 29.2067 14.5328
v  6.5318 29.6379 21.3207
v  20.5409 27.8285 7.7187
v  24.7736 26.8172 6.4568
v  22.3935 26.4408 3.0953
v  -10.4559 31.5543 -9.0438
v  -15.2072 36.7670 -1.9479
v  -4.6537 40.2152 -1.1402
v  -4.7587 36.8486 -3.4100
v  2.0174 -4.4391 18.9567
v  -0.3336 -4.5124 14.8095
v  2.9473 -5.4213 13.9988
v  7.2723 -8.4747 3.3273
v  3.7092 -8.3080 5.6829
v  -30.2063 14.0282 9.7927
v  -31.0735 19.6397 9.5957
v  -29.8195 21.2530 8.4665
v  -23.8537 27.3457 11.5170
v  -20.5326 30.5213 8.0084
v  -26.0060 27.7964 7.6164
v  -13.0067 15.9644 17.7907
v  -7.2049 12.4263 22.8082
v  -19.5868 4.4670 21.6452
v  -14.1157 8.5798 20.4788
v  -19.6325 10.9336 22.7966
v  32.1936 10.5746 -2.7217
v  30.2673 14.6992 -5.6286
v  23.2635 1.0825 -12.3966
v  29.3409 1.9091 -9.1655
v  24.0680 -2.4420 -9.4594
v  11.4252 4.2183 -14.6141
v  0.0764 4.8574 -16.9400
v  -4.5468 10.8157 -20.2010
v  -8.6909 13.3936 -22.0389
v  -5.0333 15.8772 -18.6843
v  16.9648 12.8373 18.4266
v  24.3045 17.7573 17.7323
v  24.1597 13.8169 19.6684
v  -1.1923 3.1017 23.1634
v  -2.3415 7.0797 26.8503
v  -6.2007 0.6365 23.6647
v  -15.5335 -5.1643 4.0508
v  -15.7928 -4.4760 0.8126
v  -9.7987 -6.4729 2.3927
v  17.7427 29.0316 -15.3766
v  22.0987 28.6485 -12.9503
v  18.5811 29.1544 4.6034
v  21.6758 30.3020 0.4726
v  18.8108 33.0413 -1.2591
v  -14.7404 20.3658 -17.9163
v  -17.3353 16.1671 -17.0304
v  -18.4961 22.3086 -15.2602
v  -13.2239 15.4337 -19.2926
v  -6.7739 36.9934 13.1606
v  -6.2906 37.9051 8.2371
v  -10.5112 34.0155 10.4642
v  -11.4642 36.4465 5.0216
v  -6.5736 40.5043 4.8662
v  -17.7767 29.9330 -6.4473
v  -20.0375 28.2004 -2.7731
v  -15.7681 33.3029 -4.5337
v  -19.0597 18.0831 -13.7860
v  -22.5209 21.3838 -7.3424
v  -20.4561 20.8016 -12.9933
v  -23.1195 2.8838 20.3047
v  -24.6844 13.2820 23.0801
v  -24.8223 3.7705 19.3012
v  15.5196 -4.7249 13.1484
v  21.2173 -5.0780 10.7687
v  20.5078 -3.0429 12.8393
v  28.8925 5.1153 12.7045
v  22.8419 6.3417 15.6270
v  -5.1625 35.2711 18.7375
v  -8.4995 31.2380 14.6023
v  -8.6294 31.4149 17.9253
v  -5.3541 28.0997 24.4517
v  2.9388 26.0287 24.0646
v  0.2310 30.1257 24.1533
v  3.9095 -2.8772 -12.9533
v  2.3749 -4.9406 -9.6220
v  5.4056 33.5700 -4.6859
v  -2.4067 35.7225 -6.5212
v  0.3296 34.7763 -9.1208
v  -8.6423 36.4297 -8.0495
v  -24.4042 10.2005 -9.5618
v  -25.3921 7.6874 -10.8733
v  -25.4127 7.8534 -6.1652
v  -11.6661 -5.5671 -7.9970
v  -18.1056 -3.7987 -5.2638
v  -19.1245 -0.5167 -8.3637
v  -31.4144 15.0164 14.4588
v  -31.3804 17.9076 12.7357
v  -27.0472 7.8894 2.8446
v  26.0532 7.0039 -11.3489
v  20.3869 8.2332 -9.9409
v  23.3902 4.4223 -11.5902
v  10.7737 28.3122 11.5240
v  17.7731 29.4863 12.1326
v  7.9816 34.9256 5.2073
v  2.0448 32.2284 8.7844
v  -14.3420 12.0854 -16.1473
v  -9.9772 10.7434 -21.0566
v  -4.7525 7.6591 -19.3799
v  -4.3217 -8.3833 4.5398
v  -6.5151 -4.8216 3.7482
v  -7.6974 -8.6139 0.3139
v  -5.1629 0.0051 11.4310
v  -12.7588 3.5742 18.4398
v  -11.1973 7.0620 22.8348
v  -22.9092 29.3961 5.6273
v  -28.5087 17.0307 4.6240
v  -29.6311 20.9411 6.4786
v  -30.9887 21.4163 4.4538
v  -3.9362 17.5907 17.1576
v  13.2564 19.2510 16.7233
v  8.4068 23.3180 21.2862
v  14.4179 23.7871 16.6593
v  22.9037 17.1319 15.4056
v  22.0290 21.9199 13.5340
v  20.4840 20.6834 14.4966
v  -12.7436 34.1446 -6.4427
v  -16.0123 26.9971 -9.0315
v  -11.8717 23.0637 -16.6494
v  -16.9442 24.0513 -15.2490
v  -15.7648 24.2938 -11.8265
v  27.4954 -1.3947 6.8758
v  29.1954 1.8955 9.0833
v  23.8664 2.3470 13.3594
v  32.3541 0.9113 1.5376
v  30.5528 -1.0455 6.8784
v  21.3884 30.8000 -8.3933
v  16.0062 33.8085 -8.5945
v  21.6778 29.9894 -3.6981
v  -28.0701 12.2380 7.6281
v  -24.9409 7.8749 9.1712
v  -28.3294 9.7396 9.8031
v  -25.9541 3.7861 12.1091
v  -27.4427 7.9525 12.9138
v  6.7861 25.2314 -21.6557
v  -19.2993 32.2777 -0.9985
v  9.4421 5.9470 25.1615
v  4.5411 8.0103 26.4186
v  6.0091 3.5445 22.5641
v  8.8531 10.5764 23.5628
v  6.4183 13.7843 21.8720
v  4.7461 11.4294 25.4773
v  1.0254 32.6757 19.1498
v  -2.8011 30.3168 20.9342
v  5.3139 -1.8546 20.4665
v  9.2077 -4.3655 16.3078
v  8.9443 2.0658 19.8393
v  0.6071 6.1258 24.6656
v  -19.9581 14.5113 -10.0744
v  -19.5262 15.4078 -7.2654
v  -20.3666 16.6788 -11.5662
v  -26.9226 8.7999 -0.1453
v  -24.8008 5.1200 -5.3816
v  -25.2122 5.3425 -9.3207
v  -18.5715 13.8493 18.3607
v  -12.9445 10.7491 18.3316
v  7.7213 12.6102 -16.8638
v  4.4020 15.8660 -18.1692
v  7.0176 15.5544 -14.8869
v  0.1016 14.0668 -19.4712
v  22.8620 14.2954 18.8694
v  18.5317 15.2803 16.6378
v  18.7530 20.1209 14.2040
v  20.6980 16.4049 14.6674
v  -13.8477 -2.9967 8.2577
v  -6.7703 -3.5069 6.4072
v  -20.5883 -0.7023 8.2329
v  -14.2181 -4.6271 6.8176
v  -18.7840 -1.3449 10.7166
v  -0.5295 17.6616 23.5654
v  2.7473 18.0028 25.8226
v  0.4961 23.2586 22.6703
v  0.3184 15.2919 24.7225
v  1.2501 12.6092 28.2664
v  3.3325 15.2840 25.5928
v  21.1203 27.7968 16.1565
v  19.3847 23.1036 14.7059
v  23.1243 24.9098 14.4218
v  21.2333 29.0526 10.3305
v  22.4641 27.7744 14.5606
v  23.8941 26.5554 11.9157
v  -30.6910 21.7423 16.4177
v  -27.4517 26.1732 8.5543
v  -30.3327 24.8269 9.9449
v  -28.2218 25.8488 13.9979
v  4.7638 -7.8450 13.5854
v  17.1081 -6.4782 11.3708
v  -28.6494 13.6755 5.2552
v  -26.2584 11.1659 -1.4145
v  -28.9649 11.0259 1.9202
v  -28.0439 15.9593 3.3727
v  -2.5045 -8.1852 7.7846
v  -2.5432 -4.8578 9.8009
v  5.4934 -7.3366 1.6223
v  1.5984 -8.7839 5.6524
v  11.3394 32.4104 7.1355
v  14.6801 28.9899 7.8951
v  15.4066 29.7169 4.4630
v  15.6272 31.1091 2.3143
v  -12.0403 24.5691 18.2622
v  -12.2387 30.9439 18.4045
v  -3.6042 19.0177 -18.6953
v  -24.3583 2.6128 16.2012
v  4.5524 -7.7243 -2.7669
v  6.4236 -6.2698 -6.6887
v  28.8252 5.4668 4.4945
v  30.3478 6.3832 -6.0596
v  17.7765 -7.6346 -0.3556
v  18.6499 -6.8538 -4.0175
v  18.7709 -0.9757 -12.2180
v  15.5433 -6.1574 -8.7954
v  24.2369 -0.8099 16.5994
v  22.0209 5.1745 18.7697
v  -2.0750 34.4895 -11.0431
v  -4.0334 34.1529 -12.5011
v  7.5203 31.1042 -16.0836
v  5.7918 33.0671 -13.5315
v  -20.3348 25.5062 -9.5296
v  -20.6676 26.9583 -8.2229
v  -18.9112 25.3099 -11.5406
v  -18.6745 28.6769 10.3963
v  -6.4061 7.5580 26.5581
v  -8.4817 1.8756 23.4850
v  0.0212 40.0281 4.5107
v  -6.1837 41.6440 1.9964
v  -24.4304 24.7818 -3.0640
v  -22.4072 27.3115 -5.3999
v  22.3077 -1.7028 12.0915
v  25.2150 -3.2705 6.6796
v  20.2476 -6.6930 4.3978
v  -13.7779 -6.5644 -6.0219
v  -15.4225 -5.4808 -1.9085
v  -10.4018 -8.6697 -3.3753
v  -26.8197 29.3092 5.5732
v  -29.9391 25.2443 2.9231
v  2.2988 33.1837 -7.2442
v  3.3146 3.0318 24.0658
v  -1.1600 1.6758 19.6570
v  2.8528 1.0924 21.9864
v  -2.3165 1.4130 -15.5750
v  -8.3508 3.7499 -14.6862
v  4.2955 20.5573 24.3082
v  5.9527 22.4892 21.5268
v  3.6299 23.7179 21.9521
v  19.6963 12.3663 -9.3015
v  10.8459 13.4274 -12.6754
v  8.2264 16.4889 -15.7618
v  -19.0421 12.6929 -13.7321
v  -21.3582 10.0700 -13.2737
v  -17.7170 -1.8920 3.8142
v  -0.1359 9.4691 -21.0781
v  3.2541 9.8369 -18.6310
v  6.7033 31.2109 9.1321
v  3.9848 31.2233 15.5151
v  24.8846 9.7758 -10.0779
v  13.5344 -6.9342 -7.6442
v  13.2606 -8.3109 -3.2778
v  8.2842 -6.8199 -6.5021
v  11.5237 -7.1783 -4.1254
v  22.0585 8.8838 20.4249
v  -22.9464 3.6216 -10.7951
v  -23.4339 2.2696 -6.8891
v  11.8125 8.4883 21.5829
v  13.6071 6.8316 23.0914
v  5.1730 9.6724 26.4372
v  9.7732 8.5262 25.3146
v  -27.8344 10.2690 5.1072
v  30.6237 7.7051 10.8886
v  7.5921 27.8561 -20.6493
v  -25.5612 3.3141 -2.8857
v  -25.6763 8.9249 -1.9649
v  -18.3069 -0.5513 1.5934
v  -23.0781 1.3835 0.0367
v  -22.8466 1.6976 -1.3122
v  -20.5452 -0.7460 -4.9200
v  4.8513 25.5407 20.9636
v  -16.5534 2.0616 19.5810
v  -15.1532 1.4627 14.8023
v  31.9845 3.7876 -3.3595
v  -24.3525 21.2570 -4.5078
v  -25.1979 23.8531 -5.5766
v  -9.2034 17.8559 -17.8772
v  -7.8895 23.4373 -17.3663
v  -11.9492 21.1474 -18.3802
v  26.3919 24.9313 -11.0381
v  13.7278 -7.9603 13.2006
v  10.0855 -7.6893 14.3289
v  -0.0961 -6.0672 12.6376
v  3.1593 -7.7657 9.2216
v  2.1845 9.3709 28.5370
v  -18.3523 36.0861 -0.2146
v  -12.3308 40.4641 1.1161
v  -5.4922 30.3123 23.3528
v  -8.9522 29.2989 21.6918
v  -24.9610 27.2454 12.7851
v  -26.1760 24.7478 16.4246
v  24.1694 26.3696 -1.0790
v  -17.6258 26.1224 20.9230
v  -22.6717 25.7819 19.3218
v  -16.5255 22.4587 19.3835
v  16.6127 20.2305 16.7525
v  -15.5888 12.4457 17.3390
v  6.4326 1.3305 21.9783
v  12.2729 3.8124 22.9398
v  -10.0129 25.7543 -12.7600
v  -4.7383 5.0575 -17.0037
v  -20.8187 6.0161 -12.2620
v  -23.2251 2.2702 10.7007
v  19.8144 25.7136 -15.4974
v  16.2552 26.7430 -16.4730
v  19.5000 22.3516 -16.5955
v  8.2570 -7.3972 -1.2991
v  -18.4361 19.7544 16.7128
v  1.2235 30.9765 22.1584
v  4.5630 29.6745 18.6286
v  -3.3821 41.2739 4.3158
v  32.2032 16.3096 8.8953
v  31.1658 10.9936 8.9451
v  18.2265 30.1786 15.5766
v  11.0617 32.7187 4.8962
v  -7.2228 35.8729 -5.6528
v  -9.8702 33.8759 -9.3500
v  26.1404 25.6234 9.8408
v  5.2614 32.1586 -10.8496
v  11.0972 29.1463 -16.6273
v  15.4827 15.8394 -10.4075
v  14.9819 11.2454 -9.7127
v  11.4620 -4.7407 16.8604
v  -30.3299 11.6389 13.7777
v  24.5936 19.5119 15.3982
v  7.1057 15.9586 21.7610
v  5.5098 18.9017 20.0087
v  -15.2700 25.2055 -9.8706
v  26.9912 26.4813 -8.0898
v  21.8830 29.8250 -11.5335
v  -12.2848 29.8940 12.4724
v  -14.2473 33.8920 5.8173
v  -11.5746 31.3276 14.4377
v  -4.3151 -5.8565 -8.1966
v  0.4397 -7.6644 -7.6340
v  -11.8104 35.5175 8.1817
v  -13.0626 13.0711 -19.0014
v  13.5052 2.6074 -14.0908
v  15.2172 -1.2198 -13.0186
v  -1.6813 8.6918 27.1576
v  6.5278 10.3106 -18.3791
v  -5.8844 31.5996 20.7439
v  15.4843 -8.1522 1.6222
v  1.9439 17.3843 -19.4446
v  -1.5755 26.2842 23.8852
v  -1.7597 24.6056 21.1611
v  -16.1330 -1.2035 11.0135
v  -20.6217 3.4243 -10.6719
v  0.1686 3.6325 -15.8908
v  11.1047 -4.2188 -9.6725
v  11.4786 23.9707 17.3179
v  1.0930 -0.6086 21.8154
v  -22.4482 12.3737 -10.8982
v  -32.0465 20.7240 12.0503
v  -23.0730 0.7660 -4.8679
v  -11.8007 27.1886 20.6821
v  -21.4514 29.4369 -0.2555
v  29.4132 19.3733 8.0573
v  -20.2428 24.4617 -12.4465
v  6.1592 -6.1971 -1.7531
v  -21.3333 0.4685 4.8802
v  -20.4169 15.7554 -4.3228
v  -30.9678 18.3232 16.0865
v  -6.6071 25.8453 -16.2088
v  -4.9833 -6.9628 -5.6058
v  9.6273 34.1263 2.0178
v  -24.2102 25.6270 14.3849
v  -8.5276 8.3151 25.6915
# 497 vertices

vn -0.2536 0.9524 0.1694
vn -0.3539 0.7061 0.6133
vn -0.4470 0.8854 0.1277
vn 0.5741 -0.8180 -0.0350
vn 0.3995 -0.8630 -0.3091
vn 0.7063 -0.6245 -0.3335
vn 0.3474 0.9184 0.1895
vn 0.0481 0.9985 0.0256
vn 0.3932 0.8776 -0.2741
vn 0.0109 -0.8383 -0.5450
vn 0.0687 -0.3982 -0.9147
vn 0.1071 -0.5088 -0.8542
vn -0.7719 0.5859 -0.2468
vn -0.7154 0.5130 -0.4743
vn -0.6706 0.2358 -0.7033
vn -0.0360 -0.9884 0.1473
vn -0.0043 -0.8170 0.5766
vn -0.4339 -0.8749 0.2150
vn 0.9296 -0.3322 0.1596
vn 0.9870 -0.1057 0.1209
vn 0.9713 0.2317 -0.0537
vn -0.4128 0.5606 0.7179
vn -0.5761 0.5324 0.6202
vn -0.3979 0.5766 0.7135
vn -0.5581 0.6294 -0.5406
vn -0.7142 -0.0274 -0.6994
vn -0.5181 0.4423 -0.7321
vn 0.0075 0.7048 -0.7094
vn -0.1215 0.5008 -0.8570
vn -0.2268 0.4024 -0.8869
vn 0.0709 -0.8321 0.5501
vn -0.2386 -0.5535 -0.7979
vn -0.1699 -0.6142 -0.7707
vn -0.0730 -0.6940 -0.7163
vn 0.4183 0.3967 0.8171
vn 0.3571 0.5010 0.7883
vn 0.4045 0.1181 0.9069
vn 0.4119 0.7227 0.5550
vn 0.5246 0.8151 0.2458
vn 0.5205 0.6798 0.5167
vn 0.4284 -0.1199 -0.8956
vn 0.3421 -0.6307 -0.6965
vn 0.2625 -0.5515 -0.7918
vn 0.9137 0.2863 -0.2884
vn 0.7878 0.0059 -0.6159
vn 0.8624 0.5030 -0.0577
vn -0.3403 0.3023 0.8904
vn 0.4394 -0.0331 0.8977
vn -0.1660 -0.1801 0.9695
vn -0.9066 -0.4125 -0.0890
vn -0.7648 -0.6228 0.1651
vn -0.8636 -0.4341 -0.2563
vn -0.3924 -0.4666 -0.7927
vn -0.2652 -0.4157 -0.8700
vn -0.7291 -0.2486 -0.6377
vn -0.1288 -0.1238 -0.9839
vn -0.1959 0.1869 -0.9627
vn -0.1887 0.3109 -0.9315
vn 0.1891 -0.5250 0.8298
vn -0.0612 -0.5870 0.8073
vn 0.1156 -0.7421 0.6603
vn 0.4150 0.0806 0.9063
vn 0.2186 -0.3464 0.9123
vn 0.4967 -0.2984 0.8150
vn 0.3032 -0.9517 0.0484
vn 0.1546 -0.9862 0.0586
vn 0.0335 -0.9982 -0.0492
vn 0.0571 -0.9031 -0.4256
vn 0.1192 -0.9899 0.0764
vn -0.3519 -0.9033 0.2454
vn 0.4073 0.3464 0.8451
vn 0.3608 -0.0648 0.9304
vn 0.3537 -0.2122 0.9110
vn 0.6865 0.6807 0.2555
vn 0.8427 0.5157 0.1545
vn 0.6361 0.1382 0.7591
vn -0.3378 -0.5318 -0.7766
vn -0.7357 -0.6437 0.2107
vn -0.8339 -0.4967 0.2405
vn 0.1992 0.9098 -0.3641
vn 0.5269 0.8266 -0.1979
vn 0.6173 0.6804 -0.3949
vn -0.6293 0.7697 0.1074
vn -0.3555 0.6461 0.6754
vn -0.4054 0.7184 0.5653
vn 0.4486 0.4028 -0.7978
vn 0.2483 0.4276 -0.8692
vn 0.3701 -0.2296 -0.9002
vn 0.3585 -0.1480 -0.9217
vn 0.0014 -0.6868 -0.7268
vn 0.4167 -0.4669 -0.7800
vn -0.8223 -0.3352 -0.4598
vn -0.6010 -0.2850 -0.7467
vn -0.8666 -0.3025 -0.3969
vn -0.2929 0.5198 -0.8025
vn -0.5167 0.5468 -0.6588
vn -0.5710 0.2765 -0.7730
vn -0.1499 -0.9885 0.0187
vn -0.2294 -0.8707 0.4350
vn -0.1584 -0.9585 0.2370
vn 0.1072 0.4423 0.8904
vn -0.6107 0.0798 -0.7878
vn -0.6702 -0.1355 0.7297
vn -0.8176 -0.0295 0.5751
vn -0.8737 -0.4063 0.2674
vn 0.0689 0.3731 0.9252
vn -0.5038 -0.2925 0.8128
vn -0.2956 -0.4775 0.8274
vn -0.0656 0.2427 0.9679
vn 0.8216 -0.2461 -0.5142
vn 0.7372 -0.1665 -0.6549
vn 0.6451 -0.1987 -0.7378
vn -0.0208 0.9331 -0.3590
vn 0.2402 0.8767 -0.4167
vn 0.1332 0.6880 -0.7134
vn 0.7835 -0.1705 0.5975
vn 0.8378 -0.0140 0.5458
vn 0.7085 0.4962 0.5018
vn 0.7233 0.6606 0.2012
vn 0.1480 0.9711 0.1874
vn 0.2569 0.9645 0.0608
vn 0.1886 0.8765 0.4429
vn 0.3128 0.9427 -0.1164
vn 0.6370 0.7215 -0.2714
vn 0.6711 0.7275 0.1425
vn -0.4670 0.2513 -0.8478
vn -0.3632 0.6361 -0.6808
vn 0.0161 0.7144 -0.6996
vn 0.0317 0.7966 -0.6036
vn -0.2936 -0.7612 0.5783
vn -0.5718 -0.7149 0.4024
vn -0.5064 -0.7352 0.4506
vn -0.1066 -0.9676 -0.2289
vn 0.0272 -0.9990 -0.0348
vn -0.9158 -0.2543 -0.3109
vn -0.8152 -0.0466 -0.5773
vn -0.8652 0.1543 -0.4772
vn -0.3502 0.9333 0.0798
vn -0.3401 0.8232 0.4545
vn -0.3749 0.7879 0.4885
vn -0.2109 0.1169 0.9705
vn -0.3966 0.3598 0.8445
vn 0.0829 -0.4604 0.8839
vn 0.0694 0.2959 0.9527
vn 0.3472 0.1617 0.9237
vn 0.9251 0.0441 -0.3772
vn 0.7753 0.1760 -0.6066
vn 0.2970 -0.2188 -0.9295
vn 0.7492 -0.2461 -0.6150
vn 0.4059 -0.6657 -0.6262
vn 0.2529 -0.0302 -0.9670
vn 0.0882 -0.5817 -0.8086
vn 0.0697 -0.0030 -0.9976
vn -0.0020 0.1754 -0.9845
vn 0.0671 0.2459 -0.9670
vn 0.1640 0.4567 0.8744
vn -0.0782 0.6538 0.7526
vn 0.2979 0.1724 0.9389
vn 0.1918 -0.7507 0.6322
vn 0.0391 -0.4326 0.9007
vn -0.0642 -0.8735 0.4826
vn -0.5633 -0.8114 0.1562
vn -0.6584 -0.7510 0.0501
vn -0.1257 -0.8756 0.4664
vn 0.3821 0.4713 -0.7949
vn 0.5907 0.4769 -0.6509
vn 0.3374 0.8587 0.3858
vn 0.7018 0.6466 0.2989
vn 0.3760 0.9004 0.2187
vn -0.2811 0.2806 -0.9177
vn -0.7187 -0.1689 -0.6745
vn -0.6362 0.2228 -0.7386
vn -0.3402 0.1532 -0.9278
vn -0.3409 0.8498 0.4020
vn -0.3685 0.8554 0.3639
vn -0.5548 0.6622 0.5037
vn -0.3700 0.6205 0.6914
vn -0.2269 0.8427 0.4882
vn -0.5315 0.6689 -0.5197
vn -0.6894 0.6678 -0.2806
vn -0.5478 0.6387 -0.5403
vn -0.8614 -0.1119 -0.4954
vn -0.8670 -0.2308 -0.4417
vn -0.8793 -0.0947 -0.4668
vn -0.2887 -0.7502 0.5948
vn -0.2504 0.1106 0.9618
vn -0.7286 -0.5772 0.3687
vn 0.3959 -0.7251 0.5635
vn 0.4788 -0.7525 0.4522
vn 0.4671 -0.7869 0.4033
vn 0.7144 -0.3962 0.5768
vn 0.7912 -0.3082 0.5283
vn -0.1863 0.8242 0.5348
vn -0.4689 0.8275 0.3088
vn -0.4156 0.8737 0.2527
vn -0.2813 -0.0777 0.9565
vn 0.3831 -0.2307 0.8944
vn 0.0829 0.6091 0.7888
vn -0.0261 -0.6478 -0.7613
vn -0.0100 -0.7526 -0.6584
vn 0.1098 0.9635 -0.2441
vn 0.2198 0.9634 -0.1534
vn 0.3627 0.9216 -0.1380
vn -0.2980 0.9307 -0.2121
vn -0.8322 0.5138 -0.2084
vn -0.8410 0.0493 -0.5389
vn -0.9920 0.1203 -0.0385
vn -0.2073 -0.7484 -0.6300
vn -0.6678 -0.7241 -0.1723
vn -0.4825 -0.6595 -0.5764
vn -0.9788 -0.0503 0.1983
vn -0.9881 -0.1379 0.0676
vn -0.7182 -0.6504 0.2472
vn 0.3729 0.3214 -0.8704
vn 0.0529 0.3537 -0.9339
vn -0.0211 0.2828 -0.9589
vn 0.1292 0.9839 0.1237
vn 0.1089 0.9770 -0.1832
vn 0.3968 0.8279 0.3965
vn 0.5462 0.6970 0.4645
vn -0.6056 -0.5002 -0.6189
vn -0.3710 -0.4106 -0.8329
vn -0.0901 -0.5493 -0.8308
vn -0.5300 -0.7276 0.4356
vn -0.4057 -0.7473 0.5262
vn -0.3925 -0.6931 0.6045
vn -0.4607 -0.6357 0.6194
vn -0.1308 -0.7969 0.5898
vn -0.7146 0.0751 0.6955
vn -0.3427 0.8187 0.4607
vn -0.9051 -0.1260 -0.4062
vn -0.9789 -0.0030 0.2044
vn -0.9919 -0.0847 0.0942
vn -0.4176 0.2225 0.8810
vn 0.3133 0.1245 0.9415
vn 0.3890 0.0414 0.9203
vn 0.3167 -0.0662 0.9462
vn -0.4883 0.5256 0.6966
vn 0.0639 0.0595 0.9962
vn 0.0727 0.1147 0.9907
vn -0.4689 0.7737 -0.4261
vn -0.1419 0.5863 -0.7976
vn -0.2178 0.7466 -0.6286
vn -0.1662 0.7883 -0.5925
vn 0.0776 0.9199 -0.3845
vn 0.3553 -0.7599 0.5443
vn 0.8149 -0.2677 0.5140
vn 0.8204 -0.3290 0.4677
vn 0.9683 -0.2294 0.0990
vn 0.6536 -0.5433 0.5269
vn 0.5514 0.8341 -0.0152
vn 0.2678 0.9541 -0.1344
vn 0.7367 0.6761 -0.0124
vn -0.8216 -0.5378 -0.1892
vn -0.8076 -0.4748 -0.3499
vn -0.6826 -0.5919 -0.4286
vn -0.8276 -0.5349 -0.1700
vn -0.8248 -0.5462 -0.1461
vn -0.1336 0.1630 -0.9775
vn -0.6623 0.3650 -0.6543
vn 0.1951 -0.4215 0.8856
vn 0.1996 -0.4893 0.8490
vn 0.2760 -0.4561 0.8460
vn 0.4676 0.5650 0.6798
vn 0.5176 0.2333 0.8232
vn 0.6093 0.4417 0.6585
vn 0.4011 0.8268 0.3944
vn 0.0508 0.8479 0.5278
vn 0.3060 -0.5562 0.7727
vn 0.0333 -0.5394 0.8414
vn 0.2743 -0.6552 0.7039
vn 0.1368 -0.5933 0.7933
vn -0.9298 0.3513 -0.1098
vn -0.9867 -0.0349 -0.1588
vn -0.9402 -0.1434 -0.3090
vn -0.8903 -0.2302 -0.3929
vn -0.9682 -0.2093 -0.1372
vn -0.8941 -0.3873 -0.2248
vn 0.6436 0.3924 0.6572
vn -0.3004 0.4395 0.8465
vn 0.6679 0.3035 -0.6795
vn 0.4739 0.0627 -0.8783
vn 0.5905 -0.2492 -0.7676
vn 0.1200 0.1319 -0.9840
vn -0.3437 0.4830 0.8054
vn 0.2633 0.5472 0.7945
vn 0.3988 0.0109 0.9170
vn -0.0996 0.6244 0.7748
vn 0.0838 -0.7679 0.6351
vn -0.2863 -0.7759 0.5622
vn -0.6962 -0.7174 -0.0263
vn -0.1768 -0.8576 0.4829
vn -0.4501 -0.7703 0.4517
vn -0.6306 0.2579 0.7320
vn 0.0557 0.1673 0.9843
vn -0.2769 -0.0367 0.9602
vn -0.4886 0.3163 0.8132
vn -0.1466 0.4335 0.8891
vn 0.4266 0.2417 0.8716
vn 0.4526 0.2495 0.8561
vn 0.3439 -0.2004 0.9174
vn 0.1775 -0.1641 0.9703
vn 0.3988 0.8862 -0.2359
vn 0.7028 0.6076 0.3700
vn 0.7132 0.6703 0.2051
vn -0.7520 0.3573 0.5539
vn -0.7092 0.7012 0.0727
vn -0.7504 0.5753 -0.3256
vn -0.4394 0.8277 0.3491
vn -0.2312 -0.8777 0.4198
vn 0.4129 -0.8374 0.3582
vn -0.9920 -0.0706 -0.1043
vn -0.7579 0.2513 -0.6021
vn -0.9598 -0.1226 -0.2524
vn -0.8327 0.2335 -0.5021
vn -0.1994 -0.7577 0.6214
vn -0.5742 -0.6301 0.5227
vn 0.1681 -0.9664 -0.1942
vn 0.1156 -0.9306 0.3472
vn 0.4099 0.7857 0.4633
vn 0.2951 0.9297 0.2202
vn 0.4116 0.8103 0.4171
vn 0.2880 0.8523 0.4366
vn -0.0571 -0.4080 0.9112
vn -0.4127 0.8489 0.3304
vn -0.1481 0.0131 -0.9889
vn -0.5091 -0.8574 0.0756
vn 0.5364 -0.8328 -0.1371
vn -0.0112 -0.9738 -0.2269
vn 0.9442 -0.1572 0.2894
vn 0.8022 0.1834 -0.5682
vn 0.2736 -0.9605 -0.0514
vn 0.2678 -0.9438 -0.1939
vn 0.2199 -0.5893 -0.7774
vn 0.1045 -0.8074 -0.5806
vn 0.8394 -0.4189 0.3464
vn 0.8192 -0.1404 0.5560
vn 0.1364 0.9413 -0.3087
vn -0.2741 0.6329 -0.7241
vn 0.2849 0.6744 -0.6812
vn 0.1811 0.9810 -0.0692
vn -0.8276 0.3365 -0.4492
vn -0.5340 0.5872 -0.6083
vn -0.1326 0.8822 -0.4518
vn -0.2041 0.8424 0.4987
vn -0.2626 0.1303 0.9561
vn -0.5461 -0.6156 0.5681
vn 0.4384 0.8476 0.2989
vn 0.0086 0.9988 0.0483
vn -0.7711 0.6209 -0.1409
vn -0.6481 0.7525 -0.1174
vn 0.7756 -0.5634 0.2846
vn 0.5667 -0.7340 0.3743
vn 0.3011 -0.9401 0.1601
vn -0.4184 -0.7998 -0.4303
vn -0.5704 -0.8014 0.1802
vn -0.2914 -0.9225 -0.2531
vn -0.5664 0.7112 0.4165
vn -0.9055 0.4175 -0.0761
vn 0.3561 0.9168 -0.1810
vn 0.1303 -0.3090 0.9421
vn -0.3759 -0.7797 0.5008
vn -0.3063 -0.4568 0.8352
vn -0.1458 -0.5298 -0.8355
vn -0.2510 -0.5180 -0.8177
vn 0.5314 0.3655 0.7642
vn 0.3830 0.0614 0.9217
vn 0.4528 0.1471 0.8794
vn -0.0487 -0.1626 -0.9855
vn 0.6383 -0.0307 -0.7691
vn 0.3661 -0.5420 -0.7564
vn -0.8317 0.4893 -0.2625
vn -0.5493 0.0822 -0.8316
vn -0.7179 -0.6910 -0.0841
vn 0.2231 -0.1786 -0.9583
vn 0.3338 -0.2360 -0.9126
vn 0.2288 0.8330 0.5038
vn 0.5258 0.8330 0.1722
vn 0.3028 0.2340 -0.9239
vn 0.0119 -0.8900 -0.4558
vn -0.1375 -0.9766 -0.1654
vn -0.1770 -0.9706 -0.1631
vn -0.2182 -0.9635 -0.1549
vn 0.3914 -0.0161 0.9201
vn -0.4338 -0.5650 -0.7018
vn -0.7449 -0.6004 -0.2909
vn 0.4527 0.5088 0.7323
vn 0.3658 0.4048 0.8380
vn 0.4804 0.2188 0.8493
vn 0.4814 0.3498 0.8037
vn -0.7310 -0.5721 0.3718
vn 0.9117 -0.2342 0.3376
vn -0.0552 0.6583 -0.7507
vn -0.8899 -0.4556 -0.0215
vn -0.9455 -0.1031 -0.3088
vn -0.6637 -0.7343 0.1425
vn -0.7303 -0.6723 0.1213
vn -0.7041 -0.7100 0.0139
vn -0.6506 -0.7551 -0.0811
vn 0.4028 -0.1860 0.8962
vn 0.0720 -0.8107 0.5810
vn 0.0682 -0.8922 0.4465
vn 0.9474 -0.1450 -0.2854
vn -0.7663 -0.6216 -0.1623
vn -0.9176 0.1227 -0.3782
vn -0.1573 0.0958 -0.9829
vn -0.1730 0.4227 -0.8896
vn -0.1753 0.2677 -0.9474
vn 0.7909 0.1748 -0.5865
vn 0.4019 -0.7099 0.5784
vn 0.0645 -0.7542 0.6535
vn -0.4882 -0.7983 0.3527
vn -0.3113 -0.9348 0.1711
vn 0.1847 -0.2522 0.9499
vn -0.5729 0.6311 -0.5230
vn -0.3138 0.9416 -0.1223
vn -0.2013 0.7304 0.6527
vn -0.4357 0.5637 0.7017
vn -0.3262 0.9276 0.1818
vn -0.3346 0.7483 0.5727
vn 0.6356 0.7292 0.2537
vn -0.0424 0.2447 0.9687
vn -0.4405 0.7182 0.5386
vn 0.1866 -0.3600 0.9141
vn 0.3741 0.1664 0.9123
vn 0.1510 0.3927 0.9072
vn 0.5368 -0.3443 0.7703
vn 0.0865 -0.6217 0.7784
vn -0.3733 0.8196 -0.4347
vn -0.1524 -0.6182 -0.7711
vn -0.3778 -0.3492 -0.8575
vn -0.5829 -0.8112 -0.0455
vn 0.5113 0.2263 -0.8291
vn 0.4037 0.3100 -0.8607
vn 0.4452 -0.2090 -0.8707
vn -0.2209 -0.9589 -0.1779
vn 0.2429 -0.3545 0.9030
vn 0.1251 0.9155 0.3823
vn 0.3651 0.9273 0.0822
vn 0.0765 0.9428 0.3244
vn 0.8932 0.2029 0.4012
vn 0.9184 -0.0253 0.3948
vn 0.4093 0.8285 0.3822
vn 0.4810 0.8686 0.1187
vn -0.1569 0.9873 0.0240
vn -0.5586 0.3013 -0.7728
vn 0.9240 0.3563 0.1385
vn 0.0941 0.9938 0.0598
vn -0.1027 0.8819 -0.4601
vn 0.1863 -0.4755 -0.8598
vn 0.3424 0.1016 -0.9340
vn -0.0335 -0.5471 0.8364
vn -0.9026 -0.4302 -0.0131
vn 0.2008 0.6488 0.7340
vn 0.5206 0.2040 0.8291
vn 0.6123 0.1501 0.7762
vn 0.1411 0.6980 -0.7020
vn 0.8277 0.5177 -0.2164
vn 0.5677 0.7469 -0.3462
vn -0.6261 0.7660 0.1460
vn -0.4189 0.6262 0.6575
vn -0.4412 0.8936 0.0823
vn -0.1701 -0.8436 -0.5094
vn 0.0427 -0.8329 -0.5518
vn -0.2391 0.8614 0.4481
vn -0.6372 -0.3438 -0.6897
vn 0.2194 -0.0159 -0.9755
vn 0.1444 -0.4841 -0.8630
vn -0.3911 0.2769 0.8777
vn 0.3951 -0.1648 -0.9037
vn -0.2227 0.7281 0.6483
vn 0.0928 -0.9880 0.1235
vn 0.0979 -0.2269 -0.9690
vn -0.1550 -0.5642 0.8109
vn -0.4034 -0.5118 0.7585
vn -0.0195 -0.8329 0.5531
vn -0.1884 -0.5456 -0.8166
vn -0.0055 -0.5112 -0.8594
vn 0.1851 -0.6714 -0.7176
vn 0.5097 0.1839 0.8404
vn -0.3958 -0.2570 0.8816
vn -0.6968 0.5973 -0.3972
vn -0.9954 0.0938 -0.0189
vn -0.6367 -0.7664 -0.0846
vn -0.2250 -0.3409 0.9128
vn -0.4591 0.3744 -0.8056
vn 0.3756 0.8469 0.3763
vn -0.7605 0.5157 -0.3945
vn 0.1422 -0.9803 -0.1367
vn -0.6347 -0.7643 0.1137
vn -0.9102 0.1731 -0.3763
vn -0.9344 -0.1284 0.3322
vn -0.4399 0.6179 -0.6517
vn -0.0808 -0.7651 -0.6388
vn 0.4407 0.8834 -0.1592
vn -0.2028 0.8049 0.5577
vn -0.5169 0.3900 0.7621
# 497 vertex normals

vt 0.3194 0.3703 0.0000
vt 0.3038 0.4092 0.0000
vt 0.2865 0.3796 0.0000
vt 0.3872 0.1215 0.0000
vt 0.4199 0.1469 0.0000
vt 0.3901 0.1508 0.0000
vt 0.1106 0.4107 0.0000
vt 0.0856 0.3818 0.0000
vt 0.1311 0.3846 0.0000
vt 0.2196 0.2290 0.0000
vt 0.1995 0.1961 0.0000
vt 0.2308 0.1998 0.0000
vt 0.8213 0.0398 0.0000
vt 0.8213 0.0570 0.0000
vt 0.7813 0.0564 0.0000
vt 0.5789 0.8376 0.0000
vt 0.5689 0.8622 0.0000
vt 0.5518 0.8444 0.0000
vt 0.3564 0.6149 0.0000
vt 0.3736 0.5952 0.0000
vt 0.3791 0.6550 0.0000
vt 0.1210 0.8690 0.0000
vt 0.0872 0.8788 0.0000
vt 0.0962 0.8475 0.0000
vt 0.9058 0.8177 0.0000
vt 0.8648 0.7946 0.0000
vt 0.9151 0.7943 0.0000
vt 0.1400 0.0146 0.0000
vt 0.1561 0.0374 0.0000
vt 0.1307 0.0383 0.0000
vt 0.5984 0.8661 0.0000
vt 0.1070 0.2323 0.0000
vt 0.1443 0.2110 0.0000
vt 0.1587 0.2402 0.0000
vt 0.9102 0.0471 0.0000
vt 0.8996 0.0325 0.0000
vt 0.9361 0.0214 0.0000
vt 0.2184 0.3969 0.0000
vt 0.2134 0.4219 0.0000
vt 0.1731 0.3986 0.0000
vt 0.4826 0.5078 0.0000
vt 0.4690 0.4687 0.0000
vt 0.5099 0.4820 0.0000
vt 0.4034 0.6683 0.0000
vt 0.4361 0.6394 0.0000
vt 0.4292 0.6829 0.0000
vt 0.1995 0.7728 0.0000
vt 0.1803 0.7922 0.0000
vt 0.1777 0.7736 0.0000
vt 0.8041 0.1199 0.0000
vt 0.8400 0.1158 0.0000
vt 0.8151 0.1362 0.0000
vt 0.0895 0.1841 0.0000
vt 0.0589 0.2017 0.0000
vt 0.0454 0.1455 0.0000
vt 0.1572 0.0867 0.0000
vt 0.1221 0.0731 0.0000
vt 0.1454 0.0644 0.0000
vt 0.1562 0.7079 0.0000
vt 0.1675 0.6726 0.0000
vt 0.1856 0.6997 0.0000
vt 0.1183 0.6822 0.0000
vt 0.1437 0.6795 0.0000
vt 0.1366 0.7099 0.0000
vt 0.4586 0.0653 0.0000
vt 0.4736 0.0400 0.0000
vt 0.4788 0.0866 0.0000
vt 0.5550 0.1059 0.0000
vt 0.5461 0.0757 0.0000
vt 0.6017 0.0769 0.0000
vt 0.0379 0.5676 0.0000
vt 0.0736 0.5633 0.0000
vt 0.0389 0.5985 0.0000
vt 0.9182 0.1132 0.0000
vt 0.9549 0.1131 0.0000
vt 0.9176 0.1448 0.0000
vt 0.0781 0.2261 0.0000
vt 0.7994 0.1069 0.0000
vt 0.8313 0.0947 0.0000
vt 0.4166 0.2153 0.0000
vt 0.3714 0.2190 0.0000
vt 0.3634 0.2015 0.0000
vt 0.9288 0.6570 0.0000
vt 0.8968 0.6710 0.0000
vt 0.8615 0.6546 0.0000
vt 0.9009 0.5567 0.0000
vt 0.8854 0.5373 0.0000
vt 0.9440 0.5364 0.0000
vt 0.2814 0.0944 0.0000
vt 0.2419 0.0817 0.0000
vt 0.2655 0.0697 0.0000
vt 0.6826 0.3977 0.0000
vt 0.6730 0.4228 0.0000
vt 0.6528 0.3957 0.0000
vt 0.2729 0.2446 0.0000
vt 0.3071 0.2324 0.0000
vt 0.3070 0.2539 0.0000
vt 0.6531 0.8373 0.0000
vt 0.6348 0.8517 0.0000
vt 0.6285 0.8266 0.0000
vt 0.1994 0.8044 0.0000
vt 0.6415 0.4121 0.0000
vt 0.7304 0.1727 0.0000
vt 0.7240 0.1439 0.0000
vt 0.7540 0.1600 0.0000
vt 0.0643 0.5385 0.0000
vt 0.0800 0.8151 0.0000
vt 0.0991 0.7893 0.0000
vt 0.1250 0.8226 0.0000
vt 0.3830 0.4879 0.0000
vt 0.3967 0.4675 0.0000
vt 0.4067 0.4929 0.0000
vt 0.0704 0.3428 0.0000
vt 0.0488 0.3575 0.0000
vt 0.0475 0.3237 0.0000
vt 0.2907 0.6617 0.0000
vt 0.3158 0.6577 0.0000
vt 0.3263 0.6809 0.0000
vt 0.4274 0.3462 0.0000
vt 0.4152 0.3808 0.0000
vt 0.3955 0.3294 0.0000
vt 0.1488 0.4927 0.0000
vt 0.1811 0.4561 0.0000
vt 0.2074 0.4862 0.0000
vt 0.0943 0.4682 0.0000
vt 0.0697 0.4764 0.0000
vt 0.0698 0.4523 0.0000
vt 0.1021 0.0324 0.0000
vt 0.0900 0.0563 0.0000
vt 0.0634 0.0403 0.0000
vt 0.7085 0.8175 0.0000
vt 0.7711 0.7997 0.0000
vt 0.7697 0.8194 0.0000
vt 0.8846 0.7303 0.0000
vt 0.9066 0.7130 0.0000
vt 0.9142 0.7313 0.0000
vt 0.5011 0.0730 0.0000
vt 0.5183 0.0548 0.0000
vt 0.5579 0.7504 0.0000
vt 0.5906 0.7440 0.0000
vt 0.6004 0.7510 0.0000
vt 0.3202 0.3367 0.0000
vt 0.2924 0.3310 0.0000
vt 0.3173 0.3107 0.0000
vt 0.1435 0.8258 0.0000
vt 0.1173 0.8559 0.0000
vt 0.2006 0.8785 0.0000
vt 0.1627 0.8652 0.0000
vt 0.1894 0.8422 0.0000
vt 0.3957 0.6085 0.0000
vt 0.4206 0.6246 0.0000
vt 0.2967 0.1693 0.0000
vt 0.3304 0.1564 0.0000
vt 0.3061 0.1883 0.0000
vt 0.1994 0.1565 0.0000
vt 0.2249 0.1672 0.0000
vt 0.1593 0.1787 0.0000
vt 0.1249 0.1508 0.0000
vt 0.0978 0.1416 0.0000
vt 0.1154 0.1226 0.0000
vt 0.0992 0.6462 0.0000
vt 0.1150 0.6217 0.0000
vt 0.3960 0.3905 0.0000
vt 0.4217 0.4211 0.0000
vt 0.4093 0.4424 0.0000
vt 0.5998 0.2337 0.0000
vt 0.5663 0.2235 0.0000
vt 0.5902 0.2015 0.0000
vt 0.2092 0.5962 0.0000
vt 0.1948 0.5766 0.0000
vt 0.2386 0.5816 0.0000
vt 0.9143 0.4174 0.0000
vt 0.9150 0.4364 0.0000
vt 0.8803 0.4258 0.0000
vt 0.5584 0.5557 0.0000
vt 0.5840 0.5745 0.0000
vt 0.5400 0.5786 0.0000
vt 0.0932 0.4466 0.0000
vt 0.0644 0.4373 0.0000
vt 0.0723 0.4193 0.0000
vt 0.0539 0.1099 0.0000
vt 0.0447 0.1374 0.0000
vt 0.0299 0.1038 0.0000
vt 0.0692 0.1361 0.0000
vt 0.2437 0.4022 0.0000
vt 0.2248 0.3802 0.0000
vt 0.2526 0.3766 0.0000
vt 0.8507 0.6749 0.0000
vt 0.8139 0.6691 0.0000
vt 0.3492 0.7615 0.0000
vt 0.3478 0.7853 0.0000
vt 0.3264 0.7619 0.0000
vt 0.9297 0.3166 0.0000
vt 0.8873 0.3193 0.0000
vt 0.9176 0.3053 0.0000
vt 0.2232 0.8811 0.0000
vt 0.2135 0.8202 0.0000
vt 0.7746 0.1886 0.0000
vt 0.5859 0.3065 0.0000
vt 0.6161 0.2921 0.0000
vt 0.6167 0.3047 0.0000
vt 0.6877 0.3848 0.0000
vt 0.6415 0.3863 0.0000
vt 0.6655 0.3561 0.0000
vt 0.3105 0.8240 0.0000
vt 0.2934 0.7948 0.0000
vt 0.3119 0.8009 0.0000
vt 0.0792 0.7715 0.0000
vt 0.0365 0.7977 0.0000
vt 0.0444 0.7700 0.0000
vt 0.5420 0.1615 0.0000
vt 0.5136 0.1488 0.0000
vt 0.5463 0.1405 0.0000
vt 0.1251 0.3576 0.0000
vt 0.1564 0.3225 0.0000
vt 0.1345 0.3192 0.0000
vt 0.1812 0.2941 0.0000
vt 0.8473 0.0311 0.0000
vt 0.8637 0.0339 0.0000
vt 0.8462 0.0553 0.0000
vt 0.8270 0.3868 0.0000
vt 0.7967 0.4159 0.0000
vt 0.7763 0.3985 0.0000
vt 0.7394 0.1260 0.0000
vt 0.7320 0.1077 0.0000
vt 0.7606 0.1077 0.0000
vt 0.6412 0.0418 0.0000
vt 0.6408 0.0125 0.0000
vt 0.6494 0.0302 0.0000
vt 0.3048 0.1317 0.0000
vt 0.2535 0.1484 0.0000
vt 0.2708 0.1323 0.0000
vt 0.2930 0.1500 0.0000
vt 0.1540 0.4535 0.0000
vt 0.1225 0.4801 0.0000
vt 0.1464 0.9565 0.0000
vt 0.1458 0.9235 0.0000
vt 0.1731 0.9291 0.0000
vt 0.0138 0.3050 0.0000
vt 0.0365 0.3284 0.0000
vt 0.0143 0.3483 0.0000
vt 0.1279 0.1691 0.0000
vt 0.0940 0.1585 0.0000
vt 0.3203 0.0382 0.0000
vt 0.2991 0.0351 0.0000
vt 0.3197 0.0133 0.0000
vt 0.5357 0.4061 0.0000
vt 0.5225 0.4364 0.0000
vt 0.5115 0.4001 0.0000
vt 0.7044 0.9539 0.0000
vt 0.7356 0.9635 0.0000
vt 0.7045 0.9776 0.0000
vt 0.5613 0.7945 0.0000
vt 0.9296 0.6762 0.0000
vt 0.7650 0.0729 0.0000
vt 0.7402 0.0677 0.0000
vt 0.7451 0.0565 0.0000
vt 0.0899 0.8328 0.0000
vt 0.0996 0.5889 0.0000
vt 0.0825 0.6061 0.0000
vt 0.0808 0.5690 0.0000
vt 0.0572 0.5953 0.0000
vt 0.0581 0.6586 0.0000
vt 0.0389 0.6375 0.0000
vt 0.0501 0.6347 0.0000
vt 0.0238 0.0593 0.0000
vt 0.0469 0.0285 0.0000
vt 0.0378 0.0737 0.0000
vt 0.7478 0.2145 0.0000
vt 0.7787 0.2133 0.0000
vt 0.7781 0.2346 0.0000
vt 0.0622 0.9797 0.0000
vt 0.0540 0.9558 0.0000
vt 0.0911 0.9404 0.0000
vt 0.3514 0.5653 0.0000
vt 0.3180 0.5663 0.0000
vt 0.3510 0.5354 0.0000
vt 0.0359 0.3937 0.0000
vt 0.0610 0.3746 0.0000
vt 0.0503 0.4172 0.0000
vt 0.0639 0.4762 0.0000
vt 0.0298 0.4788 0.0000
vt 0.0161 0.4443 0.0000
vt 0.1944 0.9764 0.0000
vt 0.2272 0.9768 0.0000
vt 0.2084 0.9900 0.0000
vt 0.7915 0.1267 0.0000
vt 0.8001 0.1550 0.0000
vt 0.7778 0.1439 0.0000
vt 0.5805 0.5354 0.0000
vt 0.1809 0.0807 0.0000
vt 0.1704 0.0534 0.0000
vt 0.2060 0.0528 0.0000
vt 0.3801 0.7962 0.0000
vt 0.4003 0.7612 0.0000
vt 0.4084 0.7864 0.0000
vt 0.7044 0.8376 0.0000
vt 0.1581 0.6356 0.0000
vt 0.1660 0.6054 0.0000
vt 0.1816 0.6282 0.0000
vt 0.9237 0.0712 0.0000
vt 0.9391 0.0520 0.0000
vt 0.9492 0.0772 0.0000
vt 0.5483 0.8956 0.0000
vt 0.5089 0.8946 0.0000
vt 0.5335 0.8737 0.0000
vt 0.2548 0.4344 0.0000
vt 0.2265 0.4572 0.0000
vt 0.2092 0.6441 0.0000
vt 0.2071 0.6712 0.0000
vt 0.1780 0.6471 0.0000
vt 0.1887 0.5938 0.0000
vt 0.9217 0.3458 0.0000
vt 0.9048 0.3497 0.0000
vt 0.9227 0.3304 0.0000
vt 0.8203 0.0800 0.0000
vt 0.8140 0.0972 0.0000
vt 0.8561 0.0687 0.0000
vt 0.8691 0.0495 0.0000
vt 0.3492 0.9578 0.0000
vt 0.3201 0.9413 0.0000
vt 0.3755 0.9411 0.0000
vt 0.1523 0.8551 0.0000
vt 0.9483 0.5575 0.0000
vt 0.9708 0.5704 0.0000
vt 0.9496 0.5786 0.0000
vt 0.1471 0.1261 0.0000
vt 0.2229 0.7001 0.0000
vt 0.2409 0.7096 0.0000
vt 0.2223 0.7287 0.0000
vt 0.0589 0.6286 0.0000
vt 0.0823 0.6448 0.0000
vt 0.0693 0.6509 0.0000
vt 0.6095 0.8832 0.0000
vt 0.5684 0.8956 0.0000
vt 0.8385 0.2215 0.0000
vt 0.8719 0.2401 0.0000
vt 0.8367 0.2394 0.0000
vt 0.0707 0.8384 0.0000
vt 0.0517 0.8423 0.0000
vt 0.0550 0.8089 0.0000
vt 0.6034 0.4671 0.0000
vt 0.6166 0.4841 0.0000
vt 0.5968 0.4843 0.0000
vt 0.0147 0.6123 0.0000
vt 0.0427 0.6209 0.0000
vt 0.0210 0.6319 0.0000
vt 0.0998 0.4831 0.0000
vt 0.1081 0.5075 0.0000
vt 0.0923 0.4997 0.0000
vt 0.2322 0.7622 0.0000
vt 0.3274 0.3103 0.0000
vt 0.3460 0.3073 0.0000
vt 0.3495 0.3339 0.0000
vt 0.6691 0.9509 0.0000
vt 0.6342 0.9225 0.0000
vt 0.6695 0.9203 0.0000
vt 0.5907 0.2935 0.0000
vt 0.7784 0.0878 0.0000
vt 0.7316 0.0758 0.0000
vt 0.8138 0.0657 0.0000
vt 0.8026 0.0817 0.0000
vt 0.7744 0.0709 0.0000
vt 0.5092 0.7260 0.0000
vt 0.5139 0.7036 0.0000
vt 0.5451 0.7136 0.0000
vt 0.5135 0.0804 0.0000
vt 0.5304 0.0522 0.0000
vt 0.5264 0.3484 0.0000
vt 0.4993 0.3567 0.0000
vt 0.4962 0.3370 0.0000
vt 0.0996 0.4257 0.0000
vt 0.1228 0.7794 0.0000
vt 0.8832 0.5017 0.0000
vt 0.8613 0.4853 0.0000
vt 0.8960 0.4857 0.0000
vt 0.1193 0.1027 0.0000
vt 0.0364 0.0918 0.0000
vt 0.0667 0.0907 0.0000
vt 0.7910 0.1782 0.0000
vt 0.6694 0.8343 0.0000
vt 0.5248 0.1042 0.0000
vt 0.5193 0.1291 0.0000
vt 0.3453 0.5966 0.0000
vt 0.3125 0.5872 0.0000
vt 0.4118 0.5473 0.0000
vt 0.4349 0.5702 0.0000
vt 0.4047 0.5784 0.0000
vt 0.4460 0.1081 0.0000
vt 0.4459 0.1302 0.0000
vt 0.2738 0.1870 0.0000
vt 0.2623 0.2210 0.0000
vt 0.2657 0.5889 0.0000
vt 0.2902 0.5990 0.0000
vt 0.2670 0.6263 0.0000
vt 0.6732 0.5940 0.0000
vt 0.7260 0.5955 0.0000
vt 0.6924 0.6185 0.0000
vt 0.1395 0.3019 0.0000
vt 0.1440 0.2883 0.0000
vt 0.0765 0.3100 0.0000
vt 0.0929 0.2898 0.0000
vt 0.0934 0.3165 0.0000
vt 0.8860 0.2920 0.0000
vt 0.8119 0.2460 0.0000
vt 0.7845 0.2497 0.0000
vt 0.7963 0.2306 0.0000
vt 0.2763 0.8251 0.0000
vt 0.2657 0.8040 0.0000
vt 0.2915 0.3488 0.0000
vt 0.2070 0.5560 0.0000
vt 0.9787 0.4012 0.0000
vt 0.9613 0.4292 0.0000
vt 0.9480 0.4009 0.0000
vt 0.3980 0.2402 0.0000
vt 0.4367 0.2423 0.0000
vt 0.4344 0.2255 0.0000
vt 0.4850 0.2334 0.0000
vt 0.6580 0.7491 0.0000
vt 0.6814 0.7448 0.0000
vt 0.6557 0.7652 0.0000
vt 0.6421 0.7695 0.0000
vt 0.6399 0.7489 0.0000
vt 0.2882 0.5742 0.0000
vt 0.2880 0.5529 0.0000
vt 0.3142 0.5538 0.0000
vt 0.4255 0.0842 0.0000
vt 0.6575 0.0882 0.0000
vt 0.6338 0.0983 0.0000
vt 0.6377 0.0726 0.0000
vt 0.6110 0.0877 0.0000
vt 0.7043 0.0337 0.0000
vt 0.7327 0.0358 0.0000
vt 0.4333 0.7667 0.0000
vt 0.4600 0.7294 0.0000
vt 0.4441 0.7788 0.0000
vt 0.1314 0.3349 0.0000
vt 0.8318 0.8356 0.0000
vt 0.5346 0.5031 0.0000
vt 0.5459 0.4671 0.0000
vt 0.5491 0.4944 0.0000
vt 0.4987 0.4415 0.0000
vt 0.5859 0.1544 0.0000
vt 0.5811 0.1682 0.0000
vt 0.7523 0.2896 0.0000
vt 0.7866 0.2869 0.0000
vt 0.7936 0.3273 0.0000
vt 0.7634 0.6847 0.0000
vt 0.7764 0.6630 0.0000
vt 0.7860 0.6845 0.0000
vt 0.9743 0.0326 0.0000
vt 0.9652 0.0125 0.0000
vt 0.9800 0.0100 0.0000
vt 0.2613 0.1096 0.0000
vt 0.2093 0.1154 0.0000
vt 0.1903 0.1014 0.0000
vt 0.2098 0.0805 0.0000
vt 0.9484 0.3281 0.0000
vt 0.9456 0.3440 0.0000
vt 0.9511 0.3586 0.0000
vt 0.0488 0.7143 0.0000
vt 0.0313 0.7060 0.0000
vt 0.0440 0.6916 0.0000
vt 0.8683 0.2133 0.0000
vt 0.1519 0.1526 0.0000
vt 0.1708 0.1460 0.0000
vt 0.6590 0.5015 0.0000
vt 0.6415 0.4696 0.0000
vt 0.6659 0.4661 0.0000
vt 0.1365 0.4344 0.0000
vt 0.1655 0.4283 0.0000
vt 0.2000 0.4498 0.0000
vt 0.4340 0.5881 0.0000
vt 0.8206 0.9250 0.0000
vt 0.8037 0.9387 0.0000
vt 0.7890 0.9253 0.0000
vt 0.4800 0.1441 0.0000
vt 0.4757 0.1188 0.0000
vt 0.5084 0.1305 0.0000
vt 0.4867 0.1213 0.0000
vt 0.2866 0.6257 0.0000
vt 0.0995 0.6840 0.0000
vt 0.0714 0.6685 0.0000
vt 0.0299 0.1776 0.0000
vt 0.7420 0.3912 0.0000
vt 0.7486 0.4131 0.0000
vt 0.7267 0.4016 0.0000
vt 0.5579 0.8665 0.0000
vt 0.5354 0.6780 0.0000
vt 0.6590 0.5745 0.0000
vt 0.6137 0.5886 0.0000
vt 0.6202 0.5764 0.0000
vt 0.9449 0.0883 0.0000
vt 0.9185 0.0864 0.0000
vt 0.7010 0.1112 0.0000
vt 0.6905 0.0853 0.0000
vt 0.7097 0.0700 0.0000
vt 0.6811 0.6744 0.0000
vt 0.6642 0.6765 0.0000
vt 0.6814 0.6565 0.0000
vt 0.3154 0.6228 0.0000
vt 0.2998 0.6126 0.0000
vt 0.1667 0.0188 0.0000
vt 0.1715 0.0373 0.0000
vt 0.1994 0.0201 0.0000
vt 0.8557 0.0867 0.0000
vt 0.8262 0.0711 0.0000
vt 0.7480 0.8730 0.0000
vt 0.7560 0.8984 0.0000
vt 0.7331 0.9169 0.0000
vt 0.7272 0.9115 0.0000
vt 0.7168 0.8886 0.0000
vt 0.1595 0.5533 0.0000
vt 0.1759 0.5419 0.0000
vt 0.1763 0.5608 0.0000
vt 0.0386 0.8307 0.0000
vt 0.0367 0.8119 0.0000
vt 0.1879 0.8973 0.0000
vt 0.1640 0.8956 0.0000
vt 0.6157 0.8445 0.0000
vt 0.6009 0.8237 0.0000
vt 0.6229 0.8162 0.0000
vt 0.3833 0.5377 0.0000
vt 0.3843 0.5702 0.0000
vt 0.8864 0.8832 0.0000
vt 0.8535 0.8831 0.0000
vt 0.8711 0.8706 0.0000
vt 0.7890 0.8855 0.0000
vt 0.8201 0.8706 0.0000
vt 0.8205 0.8920 0.0000
vt 0.0889 0.1168 0.0000
vt 0.0889 0.0832 0.0000
vt 0.0688 0.1017 0.0000
vt 0.4567 0.6489 0.0000
vt 0.2828 0.0289 0.0000
vt 0.2726 0.0543 0.0000
vt 0.2533 0.0134 0.0000
vt 0.4510 0.0253 0.0000
vt 0.2391 0.6629 0.0000
vt 0.2194 0.6871 0.0000
vt 0.5515 0.4317 0.0000
vt 0.5370 0.4424 0.0000
vt 0.5307 0.0100 0.0000
vt 0.5167 0.0339 0.0000
vt 0.5017 0.0111 0.0000
vt 0.0988 0.7279 0.0000
vt 0.0817 0.7103 0.0000
vt 0.1070 0.7112 0.0000
vt 0.8685 0.5568 0.0000
vt 0.8486 0.5570 0.0000
vt 0.8556 0.5365 0.0000
vt 0.5058 0.2125 0.0000
vt 0.5416 0.2299 0.0000
vt 0.4705 0.2203 0.0000
vt 0.7139 0.5797 0.0000
vt 0.7476 0.5366 0.0000
vt 0.7514 0.5676 0.0000
vt 0.0761 0.7589 0.0000
vt 0.0972 0.7584 0.0000
vt 0.3298 0.3390 0.0000
vt 0.2973 0.9099 0.0000
vt 0.2741 0.8886 0.0000
vt 0.3058 0.8921 0.0000
vt 0.5832 0.7101 0.0000
vt 0.6280 0.7327 0.0000
vt 0.6002 0.7301 0.0000
vt 0.4798 0.3340 0.0000
vt 0.4516 0.3287 0.0000
vt 0.4671 0.3058 0.0000
vt 0.3220 0.4028 0.0000
vt 0.3408 0.3781 0.0000
vt 0.1517 0.7833 0.0000
vt 0.0291 0.5107 0.0000
vt 0.0347 0.4968 0.0000
vt 0.0609 0.5093 0.0000
vt 0.8516 0.7124 0.0000
vt 0.8426 0.7415 0.0000
vt 0.8224 0.7431 0.0000
vt 0.8139 0.7125 0.0000
vt 0.7550 0.7013 0.0000
vt 0.7554 0.7297 0.0000
vt 0.7443 0.7206 0.0000
vt 0.7084 0.0587 0.0000
vt 0.0271 0.9900 0.0000
vt 0.0126 0.9784 0.0000
vt 0.0446 0.9780 0.0000
vt 0.1843 0.9257 0.0000
vt 0.2034 0.9221 0.0000
vt 0.2100 0.9424 0.0000
vt 0.6496 0.2248 0.0000
vt 0.6279 0.2340 0.0000
vt 0.6157 0.2103 0.0000
vt 0.7272 0.2504 0.0000
vt 0.6905 0.2239 0.0000
vt 0.7443 0.2395 0.0000
vt 0.1915 0.2178 0.0000
vt 0.8260 0.3090 0.0000
vt 0.8283 0.3254 0.0000
vt 0.7998 0.3028 0.0000
vt 0.0384 0.2000 0.0000
vt 0.6640 0.8668 0.0000
vt 0.6490 0.8818 0.0000
vt 0.2441 0.0332 0.0000
vt 0.2224 0.0321 0.0000
vt 0.2468 0.0528 0.0000
vt 0.1230 0.4493 0.0000
vt 0.6865 0.5801 0.0000
vt 0.6732 0.5689 0.0000
vt 0.6990 0.5686 0.0000
vt 0.5016 0.1008 0.0000
vt 0.1671 0.7950 0.0000
vt 0.1641 0.8409 0.0000
vt 0.2509 0.4529 0.0000
vt 0.2357 0.4723 0.0000
vt 0.2078 0.4667 0.0000
vt 0.1819 0.3836 0.0000
vt 0.4180 0.2391 0.0000
vt 0.3451 0.6652 0.0000
vt 0.3332 0.6364 0.0000
vt 0.3887 0.6791 0.0000
vt 0.1319 0.4981 0.0000
vt 0.0139 0.5903 0.0000
vt 0.8675 0.4375 0.0000
vt 0.9122 0.4523 0.0000
vt 0.1303 0.4227 0.0000
vt 0.1461 0.4138 0.0000
vt 0.1480 0.3816 0.0000
vt 0.8341 0.1510 0.0000
vt 0.8535 0.1748 0.0000
vt 0.8336 0.1886 0.0000
vt 0.3882 0.2887 0.0000
vt 0.4248 0.2892 0.0000
vt 0.3886 0.3196 0.0000
vt 0.2063 0.2880 0.0000
vt 0.1824 0.3104 0.0000
vt 0.0673 0.0100 0.0000
vt 0.0966 0.0168 0.0000
vt 0.0637 0.0262 0.0000
vt 0.9479 0.1395 0.0000
vt 0.5962 0.1504 0.0000
vt 0.6263 0.1512 0.0000
vt 0.6149 0.1685 0.0000
vt 0.0705 0.7287 0.0000
vt 0.1050 0.3275 0.0000
vt 0.0808 0.2909 0.0000
vt 0.0575 0.3195 0.0000
vt 0.0607 0.2884 0.0000
vt 0.0297 0.8973 0.0000
vt 0.0166 0.8729 0.0000
vt 0.0533 0.8888 0.0000
vt 0.2326 0.0954 0.0000
vt 0.2359 0.1223 0.0000
vt 0.2008 0.6831 0.0000
vt 0.7217 0.6201 0.0000
vt 0.7806 0.1230 0.0000
vt 0.7576 0.1348 0.0000
vt 0.0660 0.6182 0.0000
vt 0.1047 0.6255 0.0000
vt 0.0271 0.9351 0.0000
vt 0.0124 0.9265 0.0000
vt 0.0446 0.9261 0.0000
vt 0.3754 0.1514 0.0000
vt 0.3643 0.1600 0.0000
vt 0.3634 0.1337 0.0000
vt 0.0410 0.6580 0.0000
vt 0.5657 0.0506 0.0000
vt 0.5906 0.0702 0.0000
vt 0.1198 0.5891 0.0000
vt 0.2865 0.4769 0.0000
vt 0.3034 0.4878 0.0000
vt 0.2851 0.5077 0.0000
vt 0.7788 0.2464 0.0000
vt 0.0472 0.4382 0.0000
vt 0.5151 0.6096 0.0000
vt 0.5091 0.5910 0.0000
vt 0.5467 0.5871 0.0000
vt 0.2679 0.3803 0.0000
vt 0.2548 0.3417 0.0000
vt 0.2877 0.4089 0.0000
vt 0.2711 0.3921 0.0000
vt 0.6239 0.1359 0.0000
vt 0.5737 0.1347 0.0000
vt 0.5827 0.1234 0.0000
vt 0.5547 0.1265 0.0000
vt 0.0100 0.9681 0.0000
vt 0.0154 0.9435 0.0000
vt 0.0404 0.9590 0.0000
vt 0.0596 0.9279 0.0000
vt 0.4703 0.0139 0.0000
vt 0.2388 0.3473 0.0000
vt 0.4889 0.3835 0.0000
vt 0.4433 0.3819 0.0000
vt 0.4824 0.3679 0.0000
vt 0.0323 0.3456 0.0000
vt 0.2390 0.1736 0.0000
vt 0.2539 0.1932 0.0000
vt 0.7342 0.6886 0.0000
vt 0.7270 0.6668 0.0000
vt 0.7530 0.6546 0.0000
vt 0.7136 0.7290 0.0000
vt 0.7061 0.6942 0.0000
vt 0.8338 0.5354 0.0000
vt 0.8390 0.5536 0.0000
vt 0.7992 0.5481 0.0000
vt 0.2944 0.1175 0.0000
vt 0.1693 0.1100 0.0000
vt 0.1888 0.1389 0.0000
vt 0.6814 0.4571 0.0000
vt 0.7421 0.4646 0.0000
vt 0.6965 0.4771 0.0000
vt 0.2650 0.4416 0.0000
vt 0.2687 0.4188 0.0000
vt 0.2830 0.4358 0.0000
vt 0.4149 0.8817 0.0000
vt 0.4309 0.8656 0.0000
vt 0.4441 0.8862 0.0000
vt 0.4564 0.0937 0.0000
vt 0.1532 0.1046 0.0000
vt 0.6338 0.5593 0.0000
vt 0.5944 0.5431 0.0000
vt 0.6606 0.5403 0.0000
vt 0.7465 0.7683 0.0000
vt 0.7061 0.7673 0.0000
vt 0.7385 0.7544 0.0000
vt 0.6223 0.8665 0.0000
vt 0.4407 0.9113 0.0000
vt 0.4291 0.9352 0.0000
vt 0.4176 0.9111 0.0000
vt 0.7548 0.3584 0.0000
vt 0.7865 0.3741 0.0000
vt 0.7517 0.3849 0.0000
vt 0.1614 0.1856 0.0000
vt 0.1502 0.2016 0.0000
vt 0.1315 0.1840 0.0000
vt 0.2344 0.2158 0.0000
vt 0.2657 0.7179 0.0000
vt 0.2801 0.7311 0.0000
vt 0.2667 0.7514 0.0000
vt 0.5326 0.8191 0.0000
vt 0.5054 0.7943 0.0000
vt 0.5321 0.7986 0.0000
vt 0.6095 0.9281 0.0000
vt 0.5932 0.9489 0.0000
vt 0.5686 0.9235 0.0000
vt 0.3724 0.9246 0.0000
vt 0.3351 0.9224 0.0000
vt 0.3662 0.9038 0.0000
vt 0.9036 0.5776 0.0000
vt 0.8486 0.5761 0.0000
vt 0.8749 0.5658 0.0000
vt 0.7500 0.0315 0.0000
vt 0.4458 0.7182 0.0000
vt 0.1449 0.6280 0.0000
vt 0.1392 0.6519 0.0000
vt 0.8124 0.3589 0.0000
vt 0.6244 0.1124 0.0000
vt 0.2016 0.7534 0.0000
vt 0.2272 0.9616 0.0000
vt 0.1835 0.9670 0.0000
vt 0.9210 0.1856 0.0000
vt 0.9233 0.1714 0.0000
vt 0.9396 0.1887 0.0000
vt 0.0100 0.7839 0.0000
vt 0.3495 0.4719 0.0000
vt 0.3436 0.4913 0.0000
vt 0.3316 0.4812 0.0000
vt 0.3325 0.5035 0.0000
vt 0.3130 0.5107 0.0000
vt 0.3253 0.4902 0.0000
vt 0.4115 0.0491 0.0000
vt 0.4341 0.0402 0.0000
vt 0.6016 0.4182 0.0000
vt 0.6165 0.3915 0.0000
vt 0.6167 0.4210 0.0000
vt 0.5084 0.9751 0.0000
vt 0.5054 0.9546 0.0000
vt 0.5258 0.9557 0.0000
vt 0.7351 0.0868 0.0000
vt 0.7213 0.0944 0.0000
vt 0.8543 0.1072 0.0000
vt 0.7108 0.9198 0.0000
vt 0.7090 0.9012 0.0000
vt 0.1169 0.7652 0.0000
vt 0.1513 0.7608 0.0000
vt 0.8746 0.0866 0.0000
vt 0.8748 0.0718 0.0000
vt 0.7580 0.4242 0.0000
vt 0.1386 0.6164 0.0000
vt 0.1323 0.5936 0.0000
vt 0.1378 0.6376 0.0000
vt 0.9523 0.7300 0.0000
vt 0.9525 0.7124 0.0000
vt 0.9729 0.7237 0.0000
vt 0.8634 0.4016 0.0000
vt 0.9072 0.4009 0.0000
vt 0.7766 0.1040 0.0000
vt 0.7948 0.0993 0.0000
vt 0.4873 0.2023 0.0000
vt 0.4177 0.7672 0.0000
vt 0.4110 0.8097 0.0000
vt 0.4676 0.5711 0.0000
vt 0.4642 0.5991 0.0000
vt 0.4441 0.5813 0.0000
vt 0.8995 0.1363 0.0000
vt 0.4447 0.5514 0.0000
vt 0.5369 0.5534 0.0000
vt 0.5054 0.5666 0.0000
vt 0.5249 0.5396 0.0000
vt 0.6030 0.6607 0.0000
vt 0.6181 0.6808 0.0000
vt 0.5614 0.6808 0.0000
vt 0.0100 0.6187 0.0000
vt 0.0255 0.6476 0.0000
vt 0.2327 0.1367 0.0000
vt 0.0934 0.5605 0.0000
vt 0.0831 0.5445 0.0000
vt 0.1370 0.7287 0.0000
vt 0.1170 0.6970 0.0000
vt 0.9038 0.2885 0.0000
vt 0.6899 0.3363 0.0000
vt 0.6730 0.3389 0.0000
vt 0.6721 0.3194 0.0000
vt 0.5142 0.1006 0.0000
vt 0.0591 0.6932 0.0000
vt 0.8413 0.1331 0.0000
vt 0.5491 0.9515 0.0000
vt 0.5614 0.9696 0.0000
vt 0.5461 0.9756 0.0000
vt 0.5320 0.9736 0.0000
vt 0.4030 0.7241 0.0000
vt 0.3960 0.7489 0.0000
vt 0.3765 0.7481 0.0000
vt 0.0112 0.0802 0.0000
vt 0.7029 0.3201 0.0000
vt 0.7316 0.3040 0.0000
vt 0.7093 0.3303 0.0000
vt 0.1079 0.4353 0.0000
vt 0.3808 0.0798 0.0000
vt 0.3634 0.0838 0.0000
vt 0.3941 0.0778 0.0000
vt 0.7168 0.1724 0.0000
vt 0.7182 0.1218 0.0000
vt 0.2946 0.0677 0.0000
vt 0.3186 0.0821 0.0000
vt 0.4416 0.3937 0.0000
vt 0.4690 0.4318 0.0000
vt 0.4416 0.4424 0.0000
vt 0.0229 0.3803 0.0000
vt 0.0100 0.4141 0.0000
vt 0.1126 0.1963 0.0000
vt 0.7678 0.3310 0.0000
vt 0.9797 0.1155 0.0000
vt 0.9671 0.1308 0.0000
vt 0.1866 0.4109 0.0000
vt 0.4959 0.2618 0.0000
vt 0.5147 0.2432 0.0000
vt 0.5416 0.2621 0.0000
vt 0.8724 0.6794 0.0000
vt 0.1160 0.0489 0.0000
vt 0.0930 0.0677 0.0000
vt 0.6402 0.8034 0.0000
vt 0.6612 0.8105 0.0000
vt 0.1783 0.8278 0.0000
vt 0.6037 0.3320 0.0000
vt 0.6167 0.3706 0.0000
vt 0.5809 0.3426 0.0000
vt 0.5702 0.3156 0.0000
vt 0.6326 0.0418 0.0000
vt 0.5750 0.0405 0.0000
vt 0.5998 0.0322 0.0000
vt 0.6499 0.9795 0.0000
vt 0.6733 0.9756 0.0000
vt 0.6557 0.9896 0.0000
vt 0.4350 0.2621 0.0000
vt 0.4450 0.9685 0.0000
vt 0.4085 0.9611 0.0000
vt 0.4407 0.9439 0.0000
vt 0.9777 0.0505 0.0000
vt 0.9668 0.0614 0.0000
vt 0.9420 0.0416 0.0000
vt 0.0701 0.8532 0.0000
vt 0.0533 0.8585 0.0000
vt 0.1718 0.4981 0.0000
vt 0.0203 0.6936 0.0000
vt 0.2409 0.6131 0.0000
vt 0.2406 0.6541 0.0000
vt 0.2243 0.6328 0.0000
vt 0.2233 0.6102 0.0000
vt 0.1855 0.2316 0.0000
vt 0.6992 0.5593 0.0000
vt 0.6689 0.5576 0.0000
vt 0.6986 0.5365 0.0000
vt 0.1117 0.5712 0.0000
vt 0.3047 0.5107 0.0000
vt 0.2810 0.6753 0.0000
vt 0.4700 0.1533 0.0000
vt 0.4222 0.1685 0.0000
vt 0.1782 0.3295 0.0000
vt 0.4254 0.2071 0.0000
vt 0.6853 0.3044 0.0000
vt 0.6561 0.3107 0.0000
vt 0.6726 0.2925 0.0000
vt 0.2519 0.2281 0.0000
vt 0.3405 0.8251 0.0000
vt 0.3372 0.8075 0.0000
vt 0.3611 0.8054 0.0000
vt 0.5830 0.1077 0.0000
vt 0.8129 0.6199 0.0000
vt 0.7844 0.6116 0.0000
vt 0.8642 0.6143 0.0000
vt 0.7479 0.6012 0.0000
vt 0.1788 0.9885 0.0000
vt 0.1437 0.9769 0.0000
vt 0.1735 0.9650 0.0000
vt 0.7733 0.4774 0.0000
vt 0.7552 0.4706 0.0000
vt 0.7866 0.4704 0.0000
vt 0.1935 0.6174 0.0000
vt 0.1904 0.6380 0.0000
vt 0.4091 0.8580 0.0000
vt 0.3955 0.8835 0.0000
vt 0.3761 0.8689 0.0000
vt 0.1306 0.7567 0.0000
vt 0.6374 0.6027 0.0000
vt 0.6638 0.6090 0.0000
vt 0.6310 0.6216 0.0000
vt 0.1274 0.4040 0.0000
vt 0.8889 0.3567 0.0000
vt 0.2661 0.6501 0.0000
vt 0.1580 0.6564 0.0000
vt 0.6892 0.3511 0.0000
vt 0.8613 0.3679 0.0000
vt 0.8665 0.3481 0.0000
vt 0.0444 0.0830 0.0000
vt 0.9753 0.0846 0.0000
vt 0.7180 0.6575 0.0000
vt 0.7177 0.6797 0.0000
vt 0.7074 0.6574 0.0000
vt 0.1680 0.5896 0.0000
vt 0.1562 0.5737 0.0000
vt 0.1849 0.5740 0.0000
vt 0.1560 0.6025 0.0000
vt 0.8995 0.1941 0.0000
vt 0.9008 0.1695 0.0000
vt 0.4772 0.4235 0.0000
vt 0.0100 0.1966 0.0000
vt 0.0294 0.2165 0.0000
vt 0.0429 0.2145 0.0000
vt 0.0568 0.2350 0.0000
vt 0.3050 0.8688 0.0000
vt 0.3280 0.8774 0.0000
vt 0.1802 0.7538 0.0000
vt 0.0732 0.1493 0.0000
vt 0.2891 0.8795 0.0000
vt 0.2657 0.8617 0.0000
vt 0.2925 0.8618 0.0000
vt 0.7490 0.9209 0.0000
vt 0.2569 0.4033 0.0000
vt 0.7892 0.6937 0.0000
vt 0.7795 0.7297 0.0000
vt 0.7641 0.7003 0.0000
vt 0.4412 0.2945 0.0000
vt 0.0227 0.8403 0.0000
vt 0.0134 0.8355 0.0000
vt 0.0223 0.8167 0.0000
vt 0.2720 0.4554 0.0000
vt 0.2472 0.4786 0.0000
vt 0.5139 0.8732 0.0000
vt 0.2409 0.5665 0.0000
vt 0.2110 0.5434 0.0000
vt 0.2264 0.5354 0.0000
vt 0.9480 0.4628 0.0000
vt 0.9692 0.4539 0.0000
vt 0.9718 0.4680 0.0000
vt 0.9245 0.2909 0.0000
vt 0.5485 0.0229 0.0000
vt 0.8995 0.0712 0.0000
vt 0.1344 0.8973 0.0000
vt 0.1380 0.8799 0.0000
vt 0.1532 0.8967 0.0000
vt 0.0653 0.7974 0.0000
vt 0.9496 0.6649 0.0000
vt 0.7005 0.0100 0.0000
vt 0.7850 0.0136 0.0000
vt 0.8113 0.0127 0.0000
vt 0.8101 0.0298 0.0000
vt 0.3637 0.8925 0.0000
vt 0.3369 0.8907 0.0000
vt 0.3638 0.8738 0.0000
vt 0.5498 0.3023 0.0000
vt 0.5691 0.2928 0.0000
vt 0.5149 0.9253 0.0000
vt 0.5275 0.9375 0.0000
vt 0.3898 0.0179 0.0000
vt 0.3783 0.0318 0.0000
vt 0.3634 0.0181 0.0000
vt 0.4106 0.0252 0.0000
vt 0.0203 0.8623 0.0000
vt 0.3479 0.3524 0.0000
vt 0.2374 0.5001 0.0000
vt 0.2730 0.4992 0.0000
vt 0.2530 0.5107 0.0000
vt 0.3922 0.8185 0.0000
vt 0.6708 0.7089 0.0000
vt 0.6714 0.7329 0.0000
vt 0.6507 0.7321 0.0000
vt 0.3495 0.4440 0.0000
vt 0.3080 0.4573 0.0000
vt 0.3083 0.4266 0.0000
vt 0.6598 0.3378 0.0000
vt 0.6415 0.3398 0.0000
vt 0.6421 0.3205 0.0000
vt 0.6342 0.9758 0.0000
vt 0.1313 0.3718 0.0000
vt 0.6367 0.1586 0.0000
vt 0.4857 0.2537 0.0000
vt 0.4486 0.2621 0.0000
vt 0.4486 0.2526 0.0000
vt 0.2511 0.3613 0.0000
vt 0.4126 0.7503 0.0000
vt 0.8324 0.4963 0.0000
vt 0.7959 0.5016 0.0000
vt 0.8198 0.4693 0.0000
vt 0.0672 0.1567 0.0000
vt 0.7329 0.3229 0.0000
vt 0.6112 0.4424 0.0000
vt 0.5171 0.3825 0.0000
vt 0.4092 0.2528 0.0000
vt 0.3991 0.2621 0.0000
vt 0.3700 0.2543 0.0000
vt 0.2300 0.8266 0.0000
vt 0.2348 0.8014 0.0000
vt 0.4864 0.3560 0.0000
vt 0.4632 0.3573 0.0000
vt 0.4685 0.3445 0.0000
vt 0.4477 0.3452 0.0000
vt 0.0144 0.5008 0.0000
vt 0.2926 0.0513 0.0000
vt 0.8613 0.4171 0.0000
vt 0.3102 0.9573 0.0000
vt 0.2994 0.9341 0.0000
vt 0.3110 0.9417 0.0000
vt 0.5759 0.7338 0.0000
vt 0.4629 0.2869 0.0000
vt 0.4888 0.2941 0.0000
vt 0.5054 0.7641 0.0000
vt 0.5500 0.7596 0.0000
vt 0.5590 0.7695 0.0000
vt 0.5987 0.7603 0.0000
vt 0.2795 0.0750 0.0000
vt 0.3742 0.4671 0.0000
vt 0.5274 0.6546 0.0000
vt 0.5478 0.6682 0.0000
vt 0.5006 0.3065 0.0000
vt 0.5087 0.2926 0.0000
vt 0.5416 0.3043 0.0000
vt 0.0613 0.7883 0.0000
vt 0.5944 0.5727 0.0000
vt 0.7892 0.6619 0.0000
vt 0.3864 0.5094 0.0000
vt 0.4725 0.6684 0.0000
vt 0.4598 0.6833 0.0000
vt 0.5559 0.9344 0.0000
vt 0.5352 0.9203 0.0000
vt 0.0579 0.7287 0.0000
vt 0.3742 0.3703 0.0000
vt 0.3975 0.3617 0.0000
vt 0.9518 0.3166 0.0000
vt 0.1846 0.1083 0.0000
vt 0.9231 0.5736 0.0000
vt 0.6658 0.8825 0.0000
vt 0.6796 0.8579 0.0000
vt 0.2279 0.0170 0.0000
vt 0.5690 0.3723 0.0000
vt 0.5445 0.3693 0.0000
vt 0.5494 0.3373 0.0000
vt 0.5614 0.4041 0.0000
vt 0.5827 0.4219 0.0000
vt 0.5778 0.4410 0.0000
vt 0.3206 0.0572 0.0000
vt 0.5510 0.0345 0.0000
vt 0.1781 0.2497 0.0000
vt 0.1061 0.2539 0.0000
vt 0.7844 0.5773 0.0000
vt 0.1937 0.3526 0.0000
vt 0.2139 0.3527 0.0000
vt 0.1953 0.3715 0.0000
vt 0.7890 0.9634 0.0000
vt 0.8070 0.9634 0.0000
vt 0.8011 0.9814 0.0000
vt 0.4345 0.7218 0.0000
vt 0.3359 0.9122 0.0000
vt 0.0668 0.5810 0.0000
vt 0.1071 0.8973 0.0000
vt 0.0784 0.8908 0.0000
vt 0.1229 0.8893 0.0000
vt 0.2722 0.9284 0.0000
vt 0.2812 0.9597 0.0000
vt 0.2657 0.9412 0.0000
vt 0.8750 0.2885 0.0000
vt 0.8967 0.2869 0.0000
vt 0.6365 0.0634 0.0000
vt 0.5992 0.0624 0.0000
vt 0.6272 0.0525 0.0000
vt 0.2089 0.2442 0.0000
vt 0.2244 0.2538 0.0000
vt 0.1940 0.2539 0.0000
vt 0.5973 0.6103 0.0000
vt 0.5781 0.5993 0.0000
vt 0.6043 0.5988 0.0000
vt 0.5563 0.6032 0.0000
vt 0.2950 0.7261 0.0000
vt 0.3066 0.7163 0.0000
vt 0.3039 0.7382 0.0000
vt 0.3892 0.9063 0.0000
vt 0.4091 0.9269 0.0000
vt 0.4057 0.9443 0.0000
vt 0.3763 0.7720 0.0000
vt 0.2272 0.2869 0.0000
vt 0.2591 0.2457 0.0000
vt 0.2563 0.2539 0.0000
vt 0.2326 0.2470 0.0000
vt 0.4651 0.6302 0.0000
vt 0.6922 0.4158 0.0000
vt 0.7124 0.4152 0.0000
vt 0.7059 0.4242 0.0000
vt 0.3484 0.5084 0.0000
vt 0.9631 0.8045 0.0000
vt 0.9208 0.8120 0.0000
vt 0.7802 0.7943 0.0000
vt 0.0761 0.9900 0.0000
vt 0.6207 0.7455 0.0000
vt 0.6172 0.7651 0.0000
vt 0.8576 0.0998 0.0000
vt 0.2385 0.7230 0.0000
vt 0.3772 0.4261 0.0000
vt 0.3861 0.4022 0.0000
vt 0.3853 0.4424 0.0000
vt 0.7686 0.0515 0.0000
vt 0.9194 0.7124 0.0000
vt 0.6379 0.8677 0.0000
vt 0.5720 0.5019 0.0000
vt 0.5747 0.7951 0.0000
vt 0.8611 0.0143 0.0000
vt 0.8419 0.0171 0.0000
vt 0.7150 0.5006 0.0000
vt 0.7450 0.4868 0.0000
vt 0.7453 0.4966 0.0000
vt 0.7866 0.5016 0.0000
vt 0.5588 0.7124 0.0000
vt 0.7146 0.3904 0.0000
vt 0.6280 0.6670 0.0000
vt 0.4178 0.4809 0.0000
vt 0.7395 0.3807 0.0000
vt 0.7137 0.3820 0.0000
vt 0.7200 0.3732 0.0000
vt 0.8748 0.1651 0.0000
vt 0.4865 0.4075 0.0000
vt 0.0691 0.6762 0.0000
vt 0.0502 0.6629 0.0000
vt 0.1898 0.0252 0.0000
vt 0.3170 0.7603 0.0000
vt 0.2657 0.7850 0.0000
vt 0.2890 0.7649 0.0000
vt 0.7192 0.2262 0.0000
vt 0.6814 0.6216 0.0000
vt 0.1147 0.9677 0.0000
vt 0.1089 0.9841 0.0000
vt 0.1017 0.9638 0.0000
vt 0.0171 0.3743 0.0000
vt 0.8995 0.2415 0.0000
vt 0.9085 0.2271 0.0000
vt 0.9372 0.2395 0.0000
vt 0.6714 0.8160 0.0000
vt 0.5725 0.6986 0.0000
vt 0.6207 0.6915 0.0000
vt 0.6280 0.7019 0.0000
vt 0.2449 0.3320 0.0000
vt 0.2399 0.3068 0.0000
vt 0.2452 0.2895 0.0000
vt 0.8535 0.9323 0.0000
vt 0.8610 0.9162 0.0000
vt 0.8709 0.9324 0.0000
vt 0.1235 0.9481 0.0000
vt 0.1142 0.9479 0.0000
vt 0.1224 0.9258 0.0000
vt 0.6100 0.0187 0.0000
vt 0.0310 0.8614 0.0000
vt 0.6765 0.6927 0.0000
vt 0.3753 0.1685 0.0000
vt 0.4251 0.4042 0.0000
vt 0.6358 0.2037 0.0000
vt 0.6415 0.2911 0.0000
vt 0.0746 0.4973 0.0000
vt 0.8021 0.2232 0.0000
vt 0.8078 0.2393 0.0000
vt 0.1586 0.5654 0.0000
vt 0.0959 0.5453 0.0000
vt 0.9280 0.6253 0.0000
vt 0.8890 0.6246 0.0000
vt 0.9058 0.6116 0.0000
vt 0.4477 0.5033 0.0000
vt 0.4595 0.5078 0.0000
vt 0.4367 0.5070 0.0000
vt 0.4552 0.4697 0.0000
vt 0.4403 0.4776 0.0000
vt 0.4355 0.4696 0.0000
vt 0.1200 0.5107 0.0000
vt 0.5104 0.8564 0.0000
vt 0.5428 0.8570 0.0000
vt 0.5265 0.8627 0.0000
vt 0.0600 0.8741 0.0000
vt 0.1926 0.1242 0.0000
vt 0.3315 0.3492 0.0000
vt 0.3393 0.7940 0.0000
vt 0.9826 0.4544 0.0000
vt 0.7044 0.8706 0.0000
vt 0.2958 0.3116 0.0000
vt 0.3143 0.2981 0.0000
vt 0.4987 0.3222 0.0000
vt 0.2726 0.3230 0.0000
vt 0.3540 0.7316 0.0000
vt 0.3290 0.7339 0.0000
vt 0.3334 0.7212 0.0000
vt 0.4552 0.4886 0.0000
vt 0.4345 0.4902 0.0000
vt 0.4287 0.4876 0.0000
vt 0.0580 0.5377 0.0000
vt 0.6799 0.4877 0.0000
vt 0.7067 0.4875 0.0000
vt 0.7043 0.5016 0.0000
# 1231 texture coords

g Group976
usemtl wire_224198087
s 1
f 1/1/1 2/2/2 3/3/3 
f 4/4/4 5/5/5 6/6/6 
f 7/7/7 8/8/8 9/9/9 
f 10/10/10 11/11/11 12/12/12 
f 13/13/13 14/14/14 15/15/15 
f 16/16/16 17/17/17 18/18/18 
f 19/19/19 20/20/20 21/21/21 
f 22/22/22 23/23/23 24/24/24 
f 25/25/25 26/26/26 27/27/27 
f 28/28/28 29/29/29 30/30/30 
f 31/31/31 17/17/17 16/16/16 
f 32/32/32 33/33/33 34/34/34 
f 35/35/35 36/36/36 37/37/37 
f 38/38/38 39/39/39 40/40/40 
f 41/41/41 42/42/42 43/43/43 
f 44/44/44 45/45/45 46/46/46 
f 47/47/47 48/48/48 49/49/49 
f 50/50/50 51/51/51 52/52/52 
f 53/53/53 54/54/54 55/55/55 
f 56/56/56 57/57/57 58/58/58 
f 59/59/59 60/60/60 61/61/61 
f 62/62/62 63/63/63 64/64/64 
f 65/65/65 66/66/66 67/67/67 
f 68/68/68 69/69/69 70/70/70 
f 71/71/71 72/72/72 73/73/73 
f 74/74/74 75/75/75 76/76/76 
f 53/53/53 32/32/32 77/77/77 
f 78/78/78 79/79/79 51/51/51 
f 80/80/80 81/81/81 82/82/82 
f 83/83/83 84/84/84 85/85/85 
f 86/86/86 87/87/87 88/88/88 
f 89/89/89 90/90/90 91/91/91 
f 92/92/92 93/93/93 94/94/94 
f 95/95/95 96/96/96 97/97/97 
f 98/98/98 99/99/99 100/100/100 
f 48/48/48 47/47/47 101/101/101 
f 102/102/102 94/94/94 93/93/93 
f 103/103/103 104/104/104 105/105/105 
f 72/72/72 71/71/71 106/106/106 
f 107/107/107 108/108/108 109/109/109 
f 110/110/110 111/111/111 112/112/112 
f 113/113/113 114/114/114 115/115/115 
f 116/116/116 117/117/117 118/118/118 
f 75/119/75 74/120/74 119/121/119 
f 120/122/120 121/123/121 122/124/122 
f 123/125/123 124/126/124 125/127/125 
f 97/128/97 96/129/96 126/130/126 
f 127/131/127 128/132/128 129/133/129 
f 130/134/130 131/135/131 132/136/132 
f 133/137/133 66/66/66 134/138/134 
f 135/139/135 136/140/136 137/141/137 
f 138/142/138 139/143/139 140/144/140 
f 141/145/141 142/146/142 24/24/24 
f 143/147/143 144/148/144 145/149/145 
f 146/150/146 147/151/147 44/44/44 
f 148/152/148 149/153/149 150/154/150 
f 88/155/88 151/156/151 152/157/152 
f 153/158/153 154/159/154 155/160/155 
f 62/62/62 156/161/156 35/162/35 
f 118/163/118 157/164/157 158/165/158 
f 60/166/60 59/167/59 63/168/63 
f 159/169/159 160/170/160 161/171/161 
f 162/172/162 163/173/163 164/174/164 
f 165/175/165 114/176/114 166/177/166 
f 167/178/167 168/179/168 169/180/169 
f 170/181/170 171/182/171 172/183/172 
f 173/184/173 171/182/171 170/181/170 
f 174/185/174 175/186/175 176/187/176 
f 177/188/177 178/189/178 85/85/85 
f 179/190/179 180/191/180 181/192/181 
f 182/193/182 183/194/183 184/195/184 
f 185/196/185 143/147/143 186/197/186 
f 105/105/105 187/198/187 103/103/103 
f 188/199/188 189/200/189 190/201/190 
f 191/202/191 116/203/116 192/204/192 
f 193/205/193 194/206/194 195/207/195 
f 196/208/196 197/209/197 198/210/198 
f 199/211/199 10/212/10 200/213/200 
f 133/137/133 67/67/67 66/66/66 
f 113/113/113 201/214/201 8/8/8 
f 202/215/202 203/216/203 204/217/204 
f 205/218/205 206/219/206 207/220/207 
f 208/221/208 209/222/209 210/223/210 
f 211/224/211 212/225/212 135/226/135 
f 79/227/79 78/228/78 213/229/213 
f 214/230/214 149/153/149 148/152/148 
f 87/231/87 215/232/215 216/233/216 
f 217/234/217 120/122/120 218/235/218 
f 219/236/219 40/237/40 220/238/220 
f 53/239/53 221/240/221 222/241/222 
f 153/158/153 223/242/223 222/243/222 
f 224/244/224 225/245/225 226/246/226 
f 227/247/227 131/248/131 18/249/18 
f 144/250/144 228/251/228 229/252/229 
f 18/18/18 161/253/161 16/16/16 
f 83/83/83 230/254/230 84/84/84 
f 231/255/231 232/256/232 233/257/233 
f 109/109/109 234/258/234 107/107/107 
f 37/259/37 235/260/235 236/261/236 
f 237/262/237 236/261/236 235/260/235 
f 238/263/238 239/264/239 240/265/240 
f 179/266/179 241/267/241 242/268/242 
f 243/269/243 244/270/244 245/271/245 
f 246/272/246 247/273/247 248/274/248 
f 249/275/249 250/276/250 4/277/4 
f 251/278/251 252/279/252 253/280/253 
f 75/281/75 119/282/119 46/283/46 
f 254/284/254 255/285/255 256/286/256 
f 255/287/255 257/288/257 258/289/258 
f 165/175/165 115/290/115 114/176/114 
f 43/291/43 259/292/259 41/293/41 
f 181/294/181 180/295/180 260/296/260 
f 127/131/127 129/133/129 181/297/181 
f 261/298/261 262/299/262 263/300/263 
f 264/301/264 265/302/265 266/303/266 
f 267/304/267 193/305/193 268/306/268 
f 193/307/193 267/308/267 39/39/39 
f 269/309/269 270/310/270 271/311/271 
f 272/312/272 263/300/263 262/299/262 
f 273/313/273 274/314/274 275/315/275 
f 205/218/205 207/220/207 13/13/13 
f 276/316/276 79/79/79 213/317/213 
f 277/318/277 207/220/207 278/319/278 
f 279/320/279 48/321/48 145/322/145 
f 280/323/280 142/146/142 141/145/141 
f 281/324/281 282/325/282 283/326/283 
f 153/158/153 155/160/155 284/327/284 
f 285/328/285 238/329/238 286/330/286 
f 287/331/287 286/332/286 288/333/288 
f 289/334/289 290/335/290 31/31/31 
f 291/336/291 292/337/292 293/338/293 
f 294/339/294 295/340/295 296/341/296 
f 297/342/297 298/343/298 299/344/299 
f 300/345/300 301/346/301 302/347/302 
f 303/348/303 304/349/304 305/350/305 
f 47/47/47 306/351/306 186/197/186 
f 307/352/307 308/353/308 309/354/309 
f 270/355/270 130/356/130 310/357/310 
f 188/199/188 311/358/311 189/200/189 
f 231/255/231 312/359/312 137/360/137 
f 313/361/313 314/362/314 315/363/315 
f 316/364/316 317/365/317 290/366/290 
f 318/367/318 319/368/319 69/69/69 
f 320/369/320 321/370/321 322/371/322 
f 8/8/8 7/7/7 323/372/323 
f 324/373/324 109/109/109 108/108/108 
f 325/374/325 3/375/3 2/376/2 
f 56/56/56 326/377/326 57/57/57 
f 170/181/170 244/378/244 243/379/243 
f 257/288/257 327/380/327 258/289/258 
f 100/100/100 327/381/327 98/98/98 
f 69/69/69 68/68/68 328/382/328 
f 10/212/10 329/383/329 200/213/200 
f 249/275/249 330/384/330 247/385/247 
f 149/386/149 214/387/214 331/388/331 
f 4/4/4 332/389/332 333/390/333 
f 334/391/334 150/154/150 335/392/335 
f 336/393/336 248/394/248 337/395/337 
f 336/396/336 61/397/61 190/398/190 
f 204/217/204 338/399/338 339/400/339 
f 340/401/340 28/402/28 341/403/341 
f 342/404/342 184/195/184 183/194/183 
f 343/405/343 242/406/242 344/407/344 
f 174/408/174 176/409/176 194/206/194 
f 138/142/138 345/410/345 139/143/139 
f 346/411/346 161/171/161 160/170/160 
f 229/412/229 228/413/228 347/414/347 
f 348/415/348 81/81/81 80/80/80 
f 178/416/178 349/417/349 85/418/85 
f 350/419/350 102/420/102 25/421/25 
f 180/422/180 351/423/351 350/419/350 
f 352/424/352 189/425/189 353/426/353 
f 4/4/4 354/427/354 332/389/332 
f 209/428/209 355/429/355 356/430/356 
f 68/68/68 357/431/357 355/429/355 
f 358/432/358 359/433/359 232/256/232 
f 27/434/27 359/435/359 83/436/83 
f 201/214/201 360/437/360 202/215/202 
f 129/133/129 128/132/128 82/438/82 
f 361/439/361 362/440/362 363/441/363 
f 18/249/18 131/248/131 130/442/130 
f 200/213/200 33/443/33 364/444/364 
f 222/445/222 223/446/223 365/447/365 
f 266/448/266 265/449/265 299/450/299 
f 366/451/366 367/452/367 368/453/368 
f 90/90/90 89/89/89 369/454/369 
f 370/455/370 371/456/371 42/457/42 
f 275/315/275 55/458/55 372/459/372 
f 55/458/55 373/460/373 372/459/372 
f 163/461/163 162/462/162 374/463/374 
f 292/337/292 291/336/291 374/464/374 
f 375/465/375 284/327/284 376/466/376 
f 152/467/152 375/468/375 376/469/376 
f 320/470/320 377/471/377 217/234/217 
f 378/472/378 121/123/121 377/471/377 
f 146/150/146 379/473/379 147/151/147 
f 91/474/91 111/475/111 89/476/89 
f 380/477/380 333/390/333 381/478/381 
f 382/479/382 380/477/380 383/480/383 
f 116/116/116 337/395/337 192/481/192 
f 156/161/156 384/482/384 285/483/285 
f 373/484/373 55/55/55 54/54/54 
f 385/485/385 386/486/386 278/487/278 
f 227/488/227 31/31/31 290/335/290 
f 290/366/290 317/365/317 227/489/227 
f 62/490/62 387/491/387 388/492/388 
f 389/493/389 390/494/390 264/301/264 
f 104/104/104 212/225/212 211/224/211 
f 306/495/306 309/496/309 308/497/308 
f 315/363/315 314/362/314 312/359/312 
f 391/498/391 78/499/78 254/500/254 
f 392/501/392 116/116/116 191/502/191 
f 191/502/191 330/384/330 392/501/392 
f 29/29/29 28/28/28 340/503/340 
f 393/504/393 115/505/115 41/293/41 
f 87/231/87 216/233/216 148/152/148 
f 12/12/12 11/11/11 151/156/151 
f 394/506/394 395/507/395 277/318/277 
f 356/508/356 396/509/396 397/510/397 398/511/398 
f 356/508/356 398/511/398 399/512/399 
f 400/513/400 106/514/106 197/515/197 
f 366/516/366 368/517/368 296/341/296 
f 144/148/144 401/518/401 228/519/228 
f 402/520/402 228/521/228 401/522/401 
f 6/523/6 249/275/249 4/277/4 
f 149/386/149 331/388/331 403/524/403 
f 183/525/183 92/526/92 404/527/404 
f 343/528/343 183/529/183 405/530/405 
f 173/184/173 170/181/170 406/531/406 
f 407/532/407 326/377/326 408/533/408 
f 45/45/45 110/534/110 46/46/46 
f 409/535/409 112/536/112 166/537/166 
f 65/65/65 410/538/410 66/66/66 
f 310/539/310 411/540/411 270/310/270 
f 317/541/317 412/542/412 227/247/227 
f 412/543/412 413/544/413 310/545/310 
f 414/546/414 272/547/272 262/548/262 
f 299/549/299 298/550/298 266/551/266 
f 415/552/415 83/553/83 416/554/416 
f 128/555/128 127/556/127 416/557/416 
f 196/208/196 417/558/417 418/559/418 
f 198/210/198 417/558/417 196/208/196 
f 419/560/419 1/1/1 345/410/345 
f 309/561/309 306/562/306 420/563/420 
f 421/564/421 251/565/251 253/566/253 
f 167/567/167 125/568/125 168/569/168 
f 422/570/422 2/2/2 423/571/423 
f 424/572/424 109/109/109 324/373/324 
f 287/573/287 425/574/425 286/575/286 
f 301/346/301 300/345/300 73/73/73 
f 144/576/144 426/577/426 279/578/279 145/579/145 
f 229/580/229 280/581/280 144/582/144 
f 307/583/307 358/432/358 232/256/232 
f 308/584/308 307/585/307 137/586/137 
f 271/587/271 427/588/427 269/589/269 
f 263/590/263 271/591/271 428/592/428 
f 96/593/96 95/594/95 429/595/429 
f 407/532/407 57/57/57 326/377/326 
f 11/11/11 10/10/10 199/596/199 
f 364/597/364 33/598/33 430/599/430 
f 53/53/53 77/77/77 54/54/54 
f 431/600/431 373/484/373 54/54/54 
f 99/99/99 432/601/432 291/602/291 
f 257/288/257 255/287/255 52/52/52 
f 352/424/352 353/426/353 248/394/248 
f 248/394/248 336/393/336 352/424/352 
f 166/537/166 112/536/112 433/603/433 
f 434/604/434 433/603/433 435/605/435 
f 321/606/321 218/235/218 123/125/123 
f 303/607/303 305/608/305 123/609/123 
f 383/480/383 436/610/436 382/479/382 
f 329/383/329 328/382/328 68/68/68 
f 252/279/252 169/180/169 253/280/253 
f 113/113/113 8/8/8 252/279/252 
f 141/145/141 424/572/424 437/611/437 
f 141/145/141 437/611/437 426/612/426 
f 268/613/268 438/614/438 267/308/267 
f 438/614/438 439/615/439 378/472/378 
f 175/186/175 174/185/174 348/616/348 
f 80/80/80 178/416/178 440/617/440 
f 21/21/21 441/618/441 442/619/442 
f 44/44/44 46/46/46 119/620/119 
f 304/349/304 218/235/218 443/621/443 
f 73/73/73 300/345/300 443/622/443 
f 226/623/226 164/174/164 356/624/356 
f 355/429/355 357/431/357 356/430/356 
f 444/625/444 323/372/323 7/7/7 
f 219/626/219 81/627/81 40/40/40 
f 294/628/294 107/629/107 234/630/234 
f 234/631/234 109/632/109 24/633/24 
f 204/217/204 241/634/241 445/635/445 
f 204/636/204 339/637/339 446/638/446 
f 75/75/75 447/639/447 76/76/76 
f 123/125/123 305/350/305 124/126/124 
f 297/640/297 23/641/23 298/642/298 
f 414/546/414 160/643/160 272/547/272 
f 201/214/201 113/113/113 448/644/448 
f 339/400/339 338/399/338 341/403/341 
f 29/645/29 449/646/449 393/647/393 
f 58/58/58 259/292/259 56/56/56 
f 370/648/370 86/649/86 281/650/281 
f 370/455/370 450/651/450 451/652/451 
f 61/61/61 60/60/60 452/653/452 
f 190/398/190 61/397/61 188/654/188 
f 135/226/135 256/655/256 453/656/453 
f 187/198/187 105/105/105 258/289/258 
f 156/161/156 425/657/425 36/658/36 
f 36/659/36 35/660/35 156/661/156 
f 157/662/157 238/663/238 285/664/285 
f 454/665/454 239/264/239 238/263/238 
f 224/666/224 226/667/226 69/69/69 
f 224/666/224 69/69/69 319/368/319 
f 455/668/455 35/162/35 37/259/37 
f 455/669/455 456/670/456 366/671/366 
f 429/595/429 457/672/457 96/593/96 
f 126/130/126 96/129/96 242/268/242 
f 421/673/421 46/283/46 251/278/251 
f 458/674/458 409/675/409 459/676/459 
f 345/410/345 460/677/460 461/678/461 
f 3/3/3 325/679/325 462/680/462 
f 32/681/32 34/682/34 463/683/463 
f 68/68/68 464/684/464 329/383/329 
f 143/147/143 145/149/145 186/197/186 
f 186/197/186 101/101/101 47/47/47 
f 20/685/20 19/686/19 330/687/330 
f 20/20/20 330/384/330 249/275/249 
f 330/384/330 191/502/191 247/385/247 
f 248/274/248 247/273/247 191/688/191 
f 66/66/66 411/689/411 310/545/310 
f 310/545/310 134/138/134 66/66/66 
f 175/186/175 177/690/177 176/187/176 
f 461/691/461 460/692/460 465/693/465 
f 221/240/221 466/694/466 222/241/222 
f 173/184/173 406/531/406 154/159/154 
f 467/695/467 148/152/148 468/696/468 
f 335/392/335 468/696/468 334/391/334 
f 22/697/22 346/698/346 469/699/469 
f 22/697/22 280/700/280 229/701/229 
f 214/702/214 379/703/379 331/704/331 
f 214/230/214 215/232/215 379/705/379 
f 376/466/376 282/706/282 470/707/470 
f 470/708/470 86/709/86 88/710/88 
f 471/711/471 195/712/195 418/713/418 
f 195/714/195 471/715/471 193/716/193 
f 67/67/67 472/717/472 65/65/65 
f 381/478/381 333/390/333 332/389/332 
f 56/56/56 473/718/473 326/377/326 
f 43/719/43 42/720/42 473/721/473 
f 313/361/313 276/316/276 314/362/314 
f 207/220/207 277/318/277 395/507/395 
f 296/341/296 368/517/368 197/209/197 
f 474/722/474 108/723/108 475/724/475 
f 31/31/31 476/725/476 289/334/289 
f 402/520/402 31/31/31 16/16/16 
f 385/726/385 210/727/210 386/728/386 
f 54/729/54 77/730/77 477/731/477 
f 375/465/375 152/157/152 223/242/223 
f 478/732/478 364/733/364 430/734/430 
f 10/212/10 380/477/380 382/479/382 
f 479/735/479 468/696/468 335/392/335 
f 310/545/310 413/544/413 134/138/134 
f 317/736/317 316/737/316 319/738/319 
f 362/739/362 361/740/361 159/741/159 
f 161/253/161 362/739/362 159/741/159 
f 315/742/315 15/743/15 313/744/313 
f 231/745/231 26/746/26 93/747/93 
f 73/748/73 72/749/72 480/750/480 
f 237/262/237 301/346/301 73/73/73 
f 233/257/233 26/751/26 231/255/231 
f 359/435/359 27/434/27 26/752/26 
f 262/299/262 261/298/261 390/753/390 
f 62/62/62 388/754/388 63/63/63 
f 208/221/208 77/730/77 32/755/32 
f 463/683/463 208/756/208 32/681/32 
f 2/2/2 1/1/1 423/571/423 
f 420/757/420 306/351/306 47/47/47 
f 130/758/130 270/759/270 269/589/269 
f 481/760/481 363/761/363 362/762/362 
f 438/614/438 122/124/122 439/615/439 
f 122/763/122 198/210/198 197/209/197 
f 351/764/351 405/765/405 350/766/350 
f 404/767/404 92/768/92 94/769/94 
f 65/65/65 189/770/189 311/771/311 
f 472/717/472 354/427/354 65/65/65 
f 482/772/482 13/773/13 273/774/273 
f 372/775/372 373/776/373 482/777/482 
f 98/98/98 432/601/432 99/99/99 
f 432/601/432 98/98/98 327/381/327 
f 137/360/137 136/778/136 308/497/308 
f 308/497/308 483/779/483 306/495/306 
f 79/79/79 397/780/397 51/51/51 
f 398/511/398 394/781/394 484/782/484 
f 485/783/485 324/373/324 196/208/196 
f 485/783/485 422/784/422 324/373/324 
f 223/242/223 153/158/153 375/465/375 
f 284/327/284 375/465/375 153/158/153 
f 484/785/484 394/506/394 386/786/386 
f 484/787/484 386/486/386 210/223/210 
f 264/788/264 35/162/35 265/789/265 
f 387/790/387 62/62/62 35/162/35 
f 164/791/164 226/792/226 225/793/225 
f 290/794/290 292/795/292 164/174/164 
f 213/317/213 314/362/314 276/316/276 
f 254/796/254 314/362/314 391/797/391 
f 415/552/415 416/554/416 127/798/127 
f 260/296/260 486/799/486 415/800/415 
f 21/21/21 119/620/119 441/618/441 
f 118/801/118 487/802/487 74/803/74 
f 454/804/454 74/74/74 76/76/76 
f 74/803/74 454/805/454 118/801/118 
f 433/806/433 112/807/112 435/808/435 
f 435/809/435 91/810/91 42/811/42 
f 39/39/39 174/185/174 193/307/193 
f 194/206/194 193/205/193 174/408/174 
f 304/812/304 302/347/302 76/813/76 
f 76/813/76 239/264/239 454/665/454 
f 87/231/87 86/814/86 215/232/215 
f 369/454/369 451/652/451 450/651/450 
f 367/815/367 236/261/236 400/816/400 
f 106/106/106 400/816/400 72/72/72 
f 61/61/61 336/817/336 59/59/59 
f 64/64/64 336/817/336 337/818/337 
f 115/115/115 393/647/393 449/646/449 
f 449/646/449 113/113/113 115/115/115 
f 184/195/184 342/404/342 488/819/488 
f 182/820/182 184/821/184 172/822/172 
f 134/138/134 318/367/318 133/137/133 
f 489/823/489 382/479/382 436/610/436 
f 374/463/374 396/824/396 163/461/163 
f 490/825/490 52/52/52 51/51/51 
f 217/234/217 377/471/377 121/123/121 
f 121/123/121 120/122/120 217/234/217 
f 13/826/13 15/743/15 491/827/491 
f 274/828/274 273/829/273 13/826/13 
f 405/830/405 351/831/351 343/832/343 
f 179/266/179 242/268/242 343/833/343 
f 171/834/171 466/835/466 55/836/55 
f 55/458/55 275/315/275 182/193/182 
f 321/606/321 123/125/123 322/837/322 
f 323/372/323 167/178/167 169/180/169 
f 78/78/78 51/51/51 50/50/50 
f 50/50/50 254/796/254 78/78/78 
f 246/838/246 4/4/4 250/839/250 
f 354/427/354 4/4/4 353/840/353 
f 104/104/104 186/841/186 306/495/306 
f 212/225/212 492/842/492 306/495/306 
f 379/705/379 45/843/45 147/844/147 
f 44/845/44 147/846/147 45/847/45 
f 341/403/341 338/399/338 448/644/448 
f 202/215/202 360/437/360 203/216/203 
f 114/114/114 251/278/251 459/848/459 
f 459/848/459 251/278/251 458/849/458 
f 252/279/252 8/8/8 169/180/169 
f 323/372/323 169/180/169 8/8/8 
f 365/850/365 32/32/32 53/53/53 
f 53/851/53 222/445/222 365/447/365 
f 75/75/75 125/852/125 124/853/124 
f 46/283/46 421/673/421 75/281/75 
f 39/39/39 378/472/378 220/854/220 
f 39/855/39 220/856/220 40/857/40 
f 85/85/85 84/84/84 461/858/461 
f 345/410/345 461/678/461 139/143/139 
f 28/28/28 30/30/30 97/128/97 
f 341/403/341 28/402/28 339/400/339 
f 371/456/371 473/718/473 42/457/42 
f 282/706/282 376/466/376 284/327/284 
f 58/58/58 57/57/57 95/859/95 
f 493/860/493 95/859/95 57/57/57 
f 143/861/143 185/862/185 100/100/100 
f 401/518/401 144/148/144 143/147/143 
f 426/612/426 437/611/437 279/863/279 
f 243/269/243 245/271/245 429/595/429 
f 493/860/493 57/57/57 407/532/407 
f 348/864/348 38/865/38 40/866/40 
f 348/864/348 40/866/40 81/867/81 
f 42/868/42 91/869/91 90/870/90 
f 450/651/450 370/455/370 42/457/42 
f 87/231/87 148/152/148 467/695/467 
f 151/156/151 88/155/88 87/231/87 
f 9/9/9 8/8/8 201/214/201 
f 82/871/82 81/872/81 9/873/9 
f 178/416/178 175/874/175 440/617/440 
f 178/875/178 177/876/177 175/877/175 
f 295/878/295 299/879/299 455/880/455 
f 295/340/295 297/881/297 299/882/299 
f 73/73/73 443/622/443 71/71/71 
f 122/124/122 71/883/71 120/122/120 
f 164/174/164 292/795/292 162/172/162 
f 374/463/374 162/462/162 292/884/292 
f 52/885/52 374/886/374 291/887/291 
f 432/888/432 52/885/52 291/887/291 
f 200/889/200 34/34/34 33/33/33 
f 200/890/200 329/891/329 464/892/464 
f 37/259/37 456/893/456 455/668/455 
f 367/894/367 366/671/366 456/670/456 
f 395/507/395 313/361/313 207/220/207 
f 14/14/14 13/13/13 207/220/207 
f 442/619/442 19/19/19 21/21/21 
f 442/619/442 116/116/116 392/501/392 
f 337/395/337 116/116/116 158/895/158 
f 158/895/158 116/116/116 118/118/118 
f 335/896/335 150/897/150 5/5/5 
f 6/6/6 5/5/5 150/897/150 
f 202/215/202 129/898/129 201/214/201 
f 129/898/129 445/635/445 241/634/241 
f 178/416/178 80/80/80 349/417/349 
f 349/417/349 128/899/128 416/554/416 
f 10/900/10 12/901/12 479/902/479 
f 380/903/380 10/10/10 479/735/479 
f 256/655/256 135/226/135 254/796/254 
f 137/360/137 312/359/312 135/226/135 
f 126/130/126 242/268/242 241/267/241 
f 204/904/204 446/905/446 241/906/241 
f 494/907/494 464/684/464 68/68/68 
f 494/908/494 68/909/68 355/910/355 
f 452/911/452 188/654/188 61/397/61 
f 411/912/411 188/913/188 452/914/452 
f 293/915/293 99/916/99 291/917/291 
f 301/346/301 237/262/237 425/657/425 
f 237/262/237 235/260/235 425/657/425 
f 361/918/361 263/300/263 272/312/272 
f 427/919/427 271/311/271 263/300/263 
f 418/920/418 325/921/325 2/922/2 
f 2/923/2 422/784/422 485/783/485 
f 9/924/9 81/925/81 495/926/495 
f 495/927/495 81/627/81 219/626/219 
f 183/194/183 182/193/182 275/315/275 
f 275/315/275 491/928/491 183/194/183 
f 64/64/64 337/818/337 62/62/62 
f 384/929/384 337/395/337 158/895/158 
f 63/168/63 428/592/428 60/166/60 
f 63/63/63 388/754/388 428/930/428 
f 191/202/191 192/204/192 248/931/248 
f 248/394/248 192/481/192 337/395/337 
f 88/155/88 152/157/152 376/466/376 
f 470/707/470 88/155/88 376/466/376 
f 15/932/15 92/933/92 491/928/491 
f 92/933/92 183/194/183 491/928/491 
f 344/407/344 242/406/242 245/271/245 
f 96/129/96 457/934/457 242/268/242 
f 298/935/298 389/493/389 266/303/266 
f 389/936/389 264/937/264 266/938/266 
f 414/939/414 298/940/298 469/941/469 
f 414/939/414 389/942/389 298/940/298 
f 130/943/130 269/944/269 481/760/481 
f 18/249/18 130/442/130 481/945/481 
f 6/523/6 403/524/403 249/275/249 
f 20/20/20 249/275/249 403/524/403 
f 206/946/206 431/600/431 385/947/385 
f 477/948/477 210/949/210 385/947/385 
f 420/563/420 47/950/47 423/951/423 
f 49/49/49 423/952/423 47/47/47 
f 222/243/222 466/953/466 154/159/154 
f 222/243/222 154/159/154 153/158/153 
f 51/954/51 396/955/396 490/956/490 
f 51/957/51 397/510/397 396/509/396 
f 195/712/195 194/958/194 462/680/462 
f 462/680/462 194/958/194 176/187/176 
f 24/24/24 23/23/23 297/881/297 
f 294/959/294 234/960/234 24/961/24 
f 141/962/141 24/633/24 109/632/109 
f 109/109/109 424/572/424 141/145/141 
f 496/963/496 419/964/419 309/965/309 
f 309/354/309 138/142/138 307/352/307 
f 417/966/417 198/967/198 268/613/268 
f 471/968/471 268/306/268 193/305/193 
f 105/105/105 453/656/453 258/289/258 
f 104/104/104 211/224/211 105/105/105 
f 379/705/379 369/454/369 89/89/89 
f 379/705/379 89/89/89 45/843/45 
f 347/969/347 497/970/497 229/971/229 
f 229/972/229 497/973/497 22/974/22 
f 218/235/218 304/349/304 303/348/303 
f 218/235/218 303/348/303 123/125/123 
f 406/531/406 408/533/408 155/160/155 
f 406/531/406 155/160/155 154/159/154 
f 488/819/488 172/975/172 184/195/184 
f 344/407/344 245/271/245 244/270/244 
f 472/717/472 67/67/67 381/478/381 
f 380/477/380 381/478/381 383/480/383 
f 319/368/319 413/544/413 317/976/317 
f 412/543/412 317/976/317 413/544/413 
f 228/521/228 402/520/402 16/16/16 
f 161/253/161 228/521/228 16/16/16 
f 387/790/387 35/162/35 264/788/264 
f 264/301/264 390/494/390 387/977/387 
f 475/978/475 296/979/296 474/980/474 
f 296/341/296 475/981/475 294/339/294 
f 83/83/83 358/982/358 230/254/230 
f 358/432/358 83/983/83 359/433/359 
f 44/44/44 119/620/119 21/21/21 
f 21/21/21 146/150/146 44/44/44 
f 76/984/76 305/985/305 304/986/304 
f 305/987/305 76/988/76 447/989/447 
f 188/199/188 411/990/411 410/991/410 
f 411/689/411 66/66/66 410/538/410 
f 431/600/431 206/946/206 373/484/373 
f 373/776/373 206/992/206 205/993/205 
f 156/161/156 285/483/285 286/332/286 
f 286/332/286 425/657/425 156/161/156 
f 209/994/209 399/995/399 210/996/210 
f 399/995/399 209/994/209 356/997/356 
f 69/69/69 328/382/328 318/367/318 
f 133/137/133 318/367/318 489/823/489 
f 1/998/1 419/964/419 496/963/496 
f 420/999/420 423/571/423 1/1/1 
f 424/572/424 49/49/49 48/48/48 
f 324/373/324 422/784/422 424/572/424 
f 127/1000/127 260/1001/260 415/1002/415 
f 260/296/260 127/1003/127 181/294/181 
f 151/156/151 11/11/11 152/157/152 
f 152/157/152 478/732/478 430/734/430 
f 354/427/354 353/840/353 189/770/189 
f 189/770/189 65/65/65 354/427/354 
f 79/1004/79 394/1005/394 398/1006/398 
f 276/316/276 394/506/394 79/79/79 
f 146/150/146 20/20/20 403/524/403 
f 146/150/146 21/21/21 20/20/20 
f 435/1007/435 42/1008/42 41/1009/41 
f 435/605/435 41/293/41 434/604/434 
f 437/611/437 48/48/48 279/863/279 
f 48/1010/48 437/1011/437 424/1012/424 
f 201/1013/201 82/871/82 9/873/9 
f 201/214/201 129/898/129 82/1014/82 
f 113/113/113 340/401/340 341/403/341 
f 113/113/113 341/403/341 448/644/448 
f 187/198/187 258/289/258 327/380/327 
f 327/381/327 100/100/100 185/862/185 
f 298/642/298 23/641/23 469/1015/469 
f 22/1016/22 469/1017/469 23/1018/23 
f 416/554/416 85/418/85 349/417/349 
f 85/418/85 416/554/416 83/553/83 
f 177/690/177 461/678/461 465/1019/465 
f 461/858/461 177/188/177 85/85/85 
f 350/419/350 25/421/25 180/422/180 
f 260/296/260 180/295/180 25/1020/25 
f 6/1021/6 150/1022/150 149/1023/149 
f 403/524/403 6/523/6 149/386/149 
f 55/55/55 221/1024/221 53/53/53 
f 55/836/55 466/835/466 221/1025/221 
f 372/459/372 273/313/273 275/315/275 
f 372/1026/372 482/772/482 273/774/273 
f 218/235/218 321/606/321 217/234/217 
f 321/370/321 320/369/320 217/1027/217 
f 325/679/325 418/713/418 195/712/195 
f 462/680/462 325/679/325 195/712/195 
f 236/261/236 367/815/367 37/259/37 
f 367/815/367 456/893/456 37/259/37 
f 208/1028/208 355/1029/355 209/1030/209 
f 208/756/208 463/683/463 355/429/355 
f 364/444/364 199/211/199 200/213/200 
f 199/596/199 364/733/364 478/732/478 
f 103/1031/103 185/196/185 186/197/186 
f 186/197/186 104/1032/104 103/1031/103 
f 318/367/318 134/138/134 319/368/319 
f 134/138/134 413/544/413 319/368/319 
f 483/779/483 212/225/212 306/495/306 
f 135/226/135 212/225/212 483/779/483 
f 315/1033/315 93/1034/93 15/1035/15 
f 93/1034/93 92/1036/92 15/1035/15 
f 214/230/214 148/152/148 216/233/216 
f 214/230/214 216/233/216 215/232/215 
f 473/718/473 284/327/284 155/160/155 
f 284/327/284 473/718/473 282/706/282 
f 301/1037/301 425/574/425 287/573/287 
f 288/333/288 240/265/240 287/331/287 
f 224/244/224 290/1038/290 225/245/225 
f 225/1039/225 290/794/290 164/174/164 
f 395/507/395 394/506/394 276/316/276 
f 276/316/276 313/361/313 395/507/395 
f 125/127/125 167/178/167 123/125/123 
f 322/837/322 123/125/123 167/178/167 
f 358/1040/358 307/1041/307 140/1042/140 
f 138/142/138 140/144/140 307/352/307 
f 421/564/421 253/566/253 168/1043/168 
f 168/569/168 253/1044/253 169/1045/169 
f 69/1046/69 226/1047/226 70/1048/70 
f 356/1049/356 70/1048/70 226/1047/226 
f 154/159/154 466/953/466 173/184/173 
f 466/953/466 171/182/171 173/184/173 
f 254/796/254 135/226/135 312/359/312 
f 254/796/254 312/359/312 314/362/314 
f 89/89/89 111/1050/111 45/843/45 
f 110/110/110 45/1051/45 111/111/111 
f 232/256/232 231/255/231 137/360/137 
f 232/256/232 137/360/137 307/583/307 
f 227/489/227 18/1052/18 17/1053/17 
f 227/1054/227 17/1055/17 31/1056/31 
f 196/208/196 108/108/108 474/1057/474 
f 108/108/108 196/208/196 324/373/324 
f 100/100/100 402/520/402 401/522/401 
f 401/522/401 143/861/143 100/100/100 
f 438/614/438 268/613/268 198/967/198 
f 198/967/198 122/124/122 438/614/438 
f 387/491/387 390/1058/390 388/492/388 
f 261/298/261 388/754/388 390/753/390 
f 265/449/265 455/1059/455 299/450/299 
f 455/668/455 265/789/265 35/162/35 
f 112/112/112 409/1060/409 110/110/110 
f 409/1061/409 458/1062/458 110/534/110 
f 451/652/451 369/454/369 215/232/215 
f 369/454/369 379/705/379 215/232/215 
f 15/743/15 14/1063/14 313/744/313 
f 313/744/313 14/1063/14 207/1064/207 
f 460/677/460 345/410/345 3/3/3 
f 1/1/1 3/3/3 345/410/345 
f 114/114/114 252/279/252 251/278/251 
f 113/113/113 252/279/252 114/114/114 
f 485/783/485 418/559/418 2/923/2 
f 485/783/485 196/208/196 418/559/418 
f 159/169/159 361/918/361 272/312/272 
f 159/169/159 272/312/272 160/170/160 
f 332/389/332 354/427/354 472/717/472 
f 332/389/332 472/717/472 381/478/381 
f 356/624/356 164/174/164 163/173/163 
f 396/824/396 356/1065/356 163/461/163 
f 118/163/118 441/1066/441 487/1067/487 
f 118/118/118 117/117/117 441/618/441 
f 182/193/182 171/1068/171 55/458/55 
f 172/975/172 171/1068/171 182/193/182 
f 371/456/371 370/455/370 283/1069/283 
f 370/1070/370 281/324/281 283/326/283 
f 52/1071/52 432/601/432 257/1072/257 
f 432/601/432 327/381/327 257/1072/257 
f 434/604/434 165/1073/165 433/603/433 
f 166/537/166 433/603/433 165/1073/165 
f 271/591/271 60/166/60 428/592/428 
f 60/60/60 271/311/271 270/310/270 
f 115/505/115 165/1073/165 434/604/434 
f 434/604/434 41/293/41 115/505/115 
f 377/471/377 220/854/220 378/472/378 
f 220/1074/220 377/1075/377 219/1076/219 
f 378/1077/378 267/1078/267 438/1079/438 
f 378/472/378 39/39/39 267/308/267 
f 290/1038/290 224/244/224 316/1080/316 
f 316/1081/316 224/666/224 319/368/319 
f 476/725/476 31/31/31 402/520/402 99/99/99 
f 200/889/200 464/1082/464 34/34/34 
f 34/682/34 464/684/464 463/683/463 
f 210/949/210 477/948/477 77/77/77 
f 77/77/77 208/1083/208 210/949/210 
f 379/703/379 146/1084/146 331/704/331 
f 403/524/403 331/388/331 146/150/146 
f 258/289/258 453/656/453 256/655/256 
f 256/1085/256 255/1086/255 258/1087/258 
f 320/369/320 219/1076/219 377/1075/377 
f 320/470/320 323/372/323 444/625/444 
f 246/1088/246 250/1089/250 247/1090/247 
f 249/275/249 247/385/247 250/276/250 
f 26/752/26 25/1020/25 102/1091/102 
f 93/747/93 26/746/26 102/1092/102 
f 237/262/237 73/73/73 480/1093/480 
f 480/1094/480 236/1095/236 237/1096/237 
f 62/62/62 337/818/337 384/482/384 
f 62/62/62 384/482/384 156/161/156 
f 26/751/26 233/257/233 359/433/359 
f 232/1097/232 359/1098/359 233/1099/233 
f 59/59/59 336/817/336 64/64/64 
f 64/64/64 63/63/63 59/59/59 
f 155/160/155 408/533/408 326/377/326 
f 155/160/155 326/377/326 473/718/473 
f 97/128/97 126/130/126 339/637/339 
f 97/128/97 339/637/339 28/28/28 
f 86/814/86 370/455/370 451/652/451 
f 215/232/215 86/814/86 451/652/451 
f 76/813/76 302/347/302 239/264/239 
f 239/264/239 302/347/302 301/346/301 
f 342/404/342 343/1100/343 344/1101/344 
f 343/1100/343 342/404/342 183/194/183 
f 310/1102/310 130/1103/130 132/1104/132 
f 132/1105/132 412/1106/412 310/1107/310 
f 280/323/280 426/612/426 144/148/144 
f 280/323/280 141/145/141 426/612/426 
f 374/1108/374 490/1109/490 396/1110/396 
f 490/1109/490 374/1108/374 52/1111/52 
f 408/1112/408 170/1113/170 243/1114/243 
f 406/531/406 170/181/170 408/533/408 
f 33/33/33 32/32/32 365/850/365 
f 430/734/430 33/33/33 365/850/365 
f 465/1019/465 176/187/176 177/690/177 
f 460/1115/460 176/1116/176 465/1117/465 
f 204/217/204 445/635/445 202/215/202 
f 129/898/129 202/215/202 445/635/445 
f 241/906/241 179/1118/179 181/294/181 
f 181/1119/181 129/898/129 241/634/241 
f 458/1062/458 46/46/46 110/534/110 
f 251/278/251 46/283/46 458/849/458 
f 371/1120/371 283/1121/283 282/1122/282 
f 473/718/473 371/456/371 282/706/282 
f 150/154/150 334/391/334 148/152/148 
f 148/152/148 334/391/334 468/696/468 
f 116/116/116 442/619/442 117/117/117 
f 117/117/117 442/619/442 441/618/441 
f 119/121/119 487/1067/487 441/1066/441 
f 487/802/487 119/1123/119 74/803/74 
f 50/50/50 255/287/255 254/796/254 
f 52/52/52 255/287/255 50/50/50 
f 94/769/94 350/766/350 405/765/405 
f 102/1124/102 350/1125/350 94/1126/94 
f 188/199/188 410/991/410 311/358/311 
f 65/65/65 311/771/311 410/538/410 
f 94/769/94 405/765/405 404/767/404 
f 404/767/404 405/765/405 183/1127/183 
f 415/1128/415 486/1129/486 27/27/27 
f 83/436/83 415/800/415 27/434/27 
f 128/899/128 349/417/349 80/80/80 
f 80/1130/80 82/438/82 128/132/128 
f 36/658/36 425/657/425 235/260/235 
f 235/260/235 37/259/37 36/658/36 
f 246/838/246 353/840/353 4/4/4 
f 353/1131/353 246/272/246 248/274/248 
f 382/479/382 489/823/489 329/383/329 
f 382/479/382 329/383/329 10/212/10 
f 343/1132/343 351/423/351 179/1133/179 
f 351/423/351 180/422/180 179/1133/179 
f 436/610/436 383/480/383 67/67/67 
f 383/480/383 381/478/381 67/67/67 
f 41/293/41 259/292/259 393/504/393 
f 29/29/29 393/504/393 259/292/259 
f 397/780/397 79/79/79 398/1134/398 
f 288/333/288 238/263/238 240/265/240 
f 238/329/238 288/1135/288 286/330/286 
f 294/339/294 24/24/24 297/881/297 
f 297/881/297 295/340/295 294/339/294 
f 259/292/259 58/58/58 29/29/29 
f 29/29/29 58/58/58 30/30/30 
f 120/122/120 443/621/443 218/235/218 
f 120/1136/120 71/1137/71 443/1138/443 
f 231/255/231 315/363/315 312/359/312 
f 231/255/231 93/1139/93 315/363/315 
f 131/135/131 412/1140/412 132/136/132 
f 227/247/227 412/542/412 131/248/131 
f 56/56/56 43/291/43 473/718/473 
f 56/56/56 259/292/259 43/291/43 
f 476/725/476 99/99/99 293/1141/293 
f 293/1141/293 289/334/289 476/725/476 
f 363/761/363 481/760/481 269/944/269 
f 269/1142/269 361/439/361 363/441/363 
f 270/310/270 452/653/452 60/60/60 
f 452/653/452 270/310/270 411/540/411 
f 38/38/38 174/185/174 39/39/39 
f 174/185/174 38/38/38 348/616/348 
f 464/684/464 494/907/494 463/683/463 
f 494/907/494 355/429/355 463/683/463 
f 161/253/161 347/1143/347 228/521/228 
f 346/411/346 347/969/347 161/171/161 
f 373/1144/373 205/218/205 482/1145/482 
f 482/1145/482 205/218/205 13/13/13 
f 293/1146/293 292/1147/292 289/1148/289 
f 290/1149/290 289/1148/289 292/1147/292 
f 75/281/75 421/673/421 125/127/125 
f 421/564/421 168/1043/168 125/1150/125 
f 424/572/424 422/784/422 49/49/49 
f 423/952/423 49/49/49 422/784/422 
f 407/532/407 408/533/408 243/379/243 
f 407/532/407 243/379/243 493/860/493 
f 278/319/278 207/220/207 206/219/206 
f 278/487/278 206/1151/206 385/485/385 
f 145/149/145 101/101/101 186/197/186 
f 101/101/101 145/149/145 48/48/48 
f 112/1152/112 91/810/91 435/809/435 
f 91/1153/91 112/112/112 111/111/111 
f 390/753/390 389/942/389 262/299/262 
f 389/942/389 414/939/414 262/299/262 
f 318/1154/318 328/1155/328 489/1156/489 
f 329/383/329 489/823/489 328/382/328 
f 444/625/444 7/7/7 495/927/495 
f 7/7/7 9/9/9 495/927/495 
f 107/629/107 294/628/294 475/1157/475 
f 108/108/108 107/107/107 475/981/475 
f 5/5/5 333/390/333 335/896/335 
f 5/5/5 4/4/4 333/390/333 
f 448/644/448 203/216/203 360/437/360 
f 448/644/448 360/437/360 201/214/201 
f 330/384/330 19/19/19 392/501/392 
f 392/501/392 19/19/19 442/619/442 
f 333/390/333 380/477/380 335/896/335 
f 380/903/380 479/735/479 335/392/335 
f 362/1158/362 18/249/18 481/945/481 
f 18/18/18 362/739/362 161/253/161 
f 158/1159/158 285/483/285 384/482/384 
f 158/1159/158 157/1160/157 285/483/285 
f 340/503/340 449/1161/449 29/29/29 
f 113/113/113 449/646/449 340/401/340 
f 429/1162/429 95/1163/95 493/1164/493 
f 493/1165/493 243/269/243 429/595/429 
f 352/1166/352 336/396/336 190/398/190 
f 190/1167/190 189/1168/189 352/1169/352 
f 459/848/459 166/1170/166 114/114/114 
f 459/676/459 409/675/409 166/177/166 
f 95/859/95 30/30/30 58/58/58 
f 30/1171/30 95/1172/95 97/1173/97 
f 185/862/185 187/1174/187 327/381/327 
f 103/1175/103 187/1176/187 185/1177/185 
f 467/695/467 151/156/151 87/231/87 
f 151/156/151 467/695/467 12/12/12 
f 492/842/492 212/225/212 104/104/104 
f 492/842/492 104/104/104 306/495/306 
f 136/778/136 135/226/135 483/779/483 
f 136/778/136 483/779/483 308/497/308 
f 430/734/430 365/850/365 223/242/223 
f 152/157/152 430/734/430 223/242/223 
f 275/1178/275 274/1179/274 491/1180/491 
f 274/1181/274 13/1182/13 491/1183/491 
f 72/1184/72 236/1185/236 480/1186/480 
f 400/816/400 236/261/236 72/72/72 
f 369/454/369 450/651/450 90/90/90 
f 42/868/42 90/870/90 450/1187/450 
f 455/1188/455 366/516/366 295/340/295 
f 296/341/296 295/340/295 366/516/366 
f 213/317/213 391/797/391 314/362/314 
f 213/1189/213 78/499/78 391/498/391 
f 277/318/277 386/786/386 394/506/394 
f 386/786/386 277/318/277 278/319/278 
f 238/663/238 157/662/157 454/1190/454 
f 118/163/118 454/1191/454 157/164/157 
f 197/209/197 474/1057/474 296/341/296 
f 197/209/197 196/208/196 474/1057/474 
f 263/590/263 428/592/428 261/1192/261 
f 261/298/261 428/930/428 388/754/388 
f 12/901/12 468/1193/468 479/902/479 
f 12/12/12 467/695/467 468/696/468 
f 75/75/75 124/853/124 447/639/447 
f 447/1194/447 124/126/124 305/350/305 
f 402/520/402 100/100/100 99/99/99 
f 344/407/344 244/270/244 488/1195/488 
f 344/407/344 488/1195/488 342/1196/342 
f 400/513/400 197/515/197 368/1197/368 
f 367/815/367 400/816/400 368/1198/368 
f 348/415/348 80/80/80 440/617/440 
f 175/1199/175 348/1200/348 440/1201/440 
f 439/615/439 122/124/122 121/123/121 
f 378/472/378 439/615/439 121/123/121 
f 152/157/152 11/11/11 478/732/478 
f 11/11/11 199/596/199 478/732/478 
f 338/399/338 204/217/204 203/216/203 
f 203/216/203 448/644/448 338/399/338 
f 453/656/453 211/224/211 135/226/135 
f 211/224/211 453/656/453 105/105/105 
f 457/1202/457 245/1203/245 242/1204/242 
f 245/271/245 457/672/457 429/595/429 
f 302/1205/302 304/1206/304 300/1207/300 
f 443/621/443 300/1208/300 304/349/304 
f 67/67/67 133/137/133 436/610/436 
f 489/823/489 436/610/436 133/137/133 
f 27/27/27 486/1129/486 25/25/25 
f 260/1209/260 25/1210/25 486/1211/486 
f 477/948/477 385/947/385 431/600/431 
f 431/600/431 54/54/54 477/948/477 
f 86/649/86 470/1212/470 281/650/281 
f 281/1213/281 470/707/470 282/706/282 
f 240/265/240 239/264/239 301/346/301 
f 240/265/240 301/346/301 287/331/287 
f 1/1/1 496/1214/496 420/999/420 
f 420/999/420 496/1214/496 309/354/309 
f 241/906/241 446/905/446 126/1215/126 
f 126/130/126 446/638/446 339/637/339 
f 138/142/138 309/354/309 419/560/419 
f 419/560/419 345/410/345 138/142/138 
f 497/970/497 347/969/347 346/411/346 
f 22/974/22 497/973/497 346/1216/346 
f 427/919/427 263/300/263 361/918/361 
f 269/309/269 427/919/427 361/918/361 
f 484/782/484 399/512/399 398/511/398 
f 210/1217/210 399/512/399 484/782/484 
f 24/24/24 142/146/142 22/22/22 
f 280/323/280 22/22/22 142/146/142 
f 230/1218/230 140/144/140 139/143/139 
f 358/1219/358 140/144/140 230/1218/230 
f 444/625/444 495/927/495 219/626/219 
f 219/626/219 320/470/320 444/625/444 
f 357/431/357 68/68/68 70/70/70 
f 356/430/356 357/431/357 70/70/70 
f 471/711/471 417/966/417 268/613/268 
f 418/713/418 417/966/417 471/711/471 
f 469/941/469 160/170/160 414/939/414 
f 160/170/160 469/941/469 346/411/346 
f 320/369/320 322/371/322 323/1220/323 
f 167/178/167 323/372/323 322/837/322 
f 84/1221/84 139/143/139 461/678/461 
f 84/1221/84 230/1218/230 139/143/139 
f 244/378/244 170/181/170 172/183/172 
f 488/1222/488 244/1223/244 172/1224/172 
f 197/1225/197 106/1226/106 122/1227/122 
f 71/71/71 122/1228/122 106/106/106 
f 176/1229/176 460/1230/460 462/1231/462 
f 462/680/462 460/677/460 3/3/3 
# 3 polygons - 984 triangles

